<?xml version="1.0" standalone="no"?>
<!DOCTYPE svg PUBLIC "-//W3C//DTD SVG 1.1//EN" "http://www.w3.org/Graphics/SVG/1.1/DTD/svg11.dtd" >
<svg xmlns="http://www.w3.org/2000/svg">
  <metadata>Created by iconfont</metadata>
  <defs>
  <font id="iconfont" horiz-adv-x="1024">
    <font-face
      font-family="iconfont"
      font-weight="400"
      font-stretch="normal"
      units-per-em="1024"
      ascent="896"
      descent="-128"
    />
      <missing-glyph />
      
      <glyph glyph-name="VK21" unicode="&#60545;" d="M93.09 416.954c0 189.254 0 283.896 58.772 342.668 58.834 58.802 153.476 58.802 342.699 58.802h34.94c189.223 0 283.865 0 342.668-58.771 58.74-58.834 58.74-153.476 58.74-342.699v-34.94c0-189.223 0-283.865-58.802-342.668-58.74-58.74-153.445-58.74-342.637-58.74h-34.909c-189.223 0-283.865 0-342.637 58.802-58.833 58.74-58.833 153.445-58.833 342.637v34.91zM320.016 556.59h-61.13c-17.44 0-20.946-8.191-20.946-17.283 0-16.136 20.698-96.411 96.443-202.535 50.455-72.518 121.576-111.802 186.305-111.802 38.85 0 43.66 8.75 43.66 23.738v54.8c0 17.438 3.662 20.945 15.95 20.945 9.092 0 24.576-4.53 60.85-39.47 41.426-41.426 48.252-60.013 71.525-60.013h61.13c17.439 0 26.19 8.75 21.1 25.972-5.461 17.16-25.258 42.046-51.51 71.587-14.243 16.818-35.56 34.94-42.046 44-9.092 11.637-6.485 16.82 0 27.183 0 0 74.41 104.82 82.2 140.444 3.909 12.94 0 22.435-18.495 22.435h-61.068c-15.515 0-22.714-8.192-26.592-17.284 0 0-31.062-75.714-75.094-124.866-14.243-14.274-20.697-18.805-28.486-18.805-3.878 0-9.464 4.562-9.464 17.47V534.125c0 15.546-4.5 22.497-17.47 22.497H450.87c-9.712 0-15.515-7.23-15.515-14.057 0-14.709 22-18.122 24.235-59.547v-89.957c0-19.735-3.538-23.304-11.326-23.304-20.697 0-71.06 76.055-100.942 163.095-5.896 16.912-11.73 23.739-27.369 23.739z"  horiz-adv-x="1024" />
      
      <glyph glyph-name="assetanslysis" unicode="&#60529;" d="M838.656 410.837333c8.106667 0 14.677333-6.4 14.677333-14.336v-339.541333a14.506667 14.506667 0 0 0-14.677333-14.293333h-50.389333a14.506667 14.506667 0 0 0-14.677334 14.293333v339.541333a14.506667 14.506667 0 0 0 14.677334 14.336h50.389333z m-398.72-181.333333c8.106667 0 14.677333-6.4 14.677333-14.293333v-158.122667a14.506667 14.506667 0 0 0-14.677333-14.293333H389.504a14.506667 14.506667 0 0 0-14.677333 14.293333v158.122667a14.506667 14.506667 0 0 0 14.677333 14.336h50.432z m199.338667 81.92c8.106667 0 14.677333-6.4 14.677333-14.293333v-240a14.506667 14.506667 0 0 0-14.677333-14.293334h-50.389334a14.506667 14.506667 0 0 0-14.677333 14.293334v240a14.506667 14.506667 0 0 0 14.677333 14.293333z m-398.72-134.741333c8.106667 0 14.677333-6.4 14.677333-14.293334v-105.173333a14.506667 14.506667 0 0 0-14.677333-14.293333H190.122667a14.506667 14.506667 0 0 0-14.677334 14.293333v105.173333a14.506667 14.506667 0 0 0 14.677334 14.293334h50.432zM835.754667 725.333333a14.506667 14.506667 0 0 0 15.957333-14.250666v-177.365334a14.506667 14.506667 0 0 0-14.677333-14.293333h-45.397334a14.506667 14.506667 0 0 0-14.677333 14.293333V580.821333c-131.797333-147.114667-347.434667-257.706667-583.68-291.626666a14.464 14.464 0 0 0-16.469333 12.16l-6.016 43.946666a14.549333 14.549333 0 0 0 12.586666 16.128c226.176 32.896 431.146667 145.28 550.4 282.026667l-67.029333-5.632a14.549333 14.549333 0 0 0-15.914667 13.013333l-3.882666 44.117334a14.421333 14.421333 0 0 0 13.312 15.488z"  horiz-adv-x="1024" />
      
      <glyph glyph-name="ventures8" unicode="&#60487;" d="M711.68 737.419636A409.6 409.6 0 1 0 278.202182 42.821818l-12.241455 8.610909c-57.995636 39.098182-89.879273 131.351273-15.639272 203.310546l-0.93091-0.837818h-0.09309l135.168 123.438545a27.927273 27.927273 0 0 0 36.352 1.117091l58.088727-46.871273 83.083636 86.295273-24.901818-6.656a18.618182 18.618182 0 0 0-22.807273 13.125818l-9.634909 36.119273a18.618182 18.618182 0 0 0 13.032727 22.760727l174.49891 47.941818c27.042909 7.447273 46.964364-25.274182 27.927272-45.893818l-220.811636-239.150545a27.927273 27.927273 0 0 0-38.167273-2.746182L402.152727 291.374545 311.575273 206.196364c-29.463273-31.371636-38.074182-71.074909 27.136-113.477819l-1.582546 1.024a335.127273 335.127273 0 1 1-165.236363 295.656728 19.456 19.456 0 0 0-18.478546-19.269818l-37.236363-1.303273a17.966545 17.966545 0 0 0-18.804364 17.966545 409.6 409.6 0 0 0 614.260364 350.626909z"  horiz-adv-x="1024" />
      
      <glyph glyph-name="naverblog" unicode="&#60486;" d="M864.512 768h1.344a31.488 31.488 0 0 0 30.144-31.488V30.08a31.488 31.488 0 0 0-31.488-30.08H158.144a31.488 31.488 0 0 0-30.144 31.488V737.92a31.488 31.488 0 0 0 31.488 30.08h705.024zM445.376 555.264H339.584v-342.464h110.784V396.096l127.616-183.296h105.792V555.264H572.928v-183.296z"  horiz-adv-x="1024" />
      
      <glyph glyph-name="zijinanquan" unicode="&#60464;" d="M766.933333 712.874667c11.946667-0.128 22.528-0.426667 31.914667-1.194667 16.341333-1.322667 31.872-4.266667 46.634667-11.733333a119.466667 119.466667 0 0 0 52.181333-52.224c7.509333-14.72 10.410667-30.293333 11.733333-46.592 0.768-9.386667 1.109333-20.053333 1.194667-31.914667l0.085333-25.557333v-152.917334l12.842667-4.906666c25.6-9.685333 42.538667-34.218667 42.538667-61.610667v-129.621333c0-18.602667-6.101333-36.864-17.578667-51.84-32.426667-42.24-60.458667-73.514667-108.458667-105.386667l-12.458666-7.936a65.962667 65.962667 0 0 0-62.762667-3.669333l-5.930667 3.157333a383.530667 383.530667 0 0 0-70.314666 52.693333l-8.490667 8.448H218.197333a459.52 459.52 0 0 0-31.914666 1.237334c-16.341333 1.322667-31.872 4.266667-46.634667 11.733333A119.466667 119.466667 0 0 0 87.466667 155.306667c-7.509333 14.72-10.410667 30.293333-11.776 46.592a334.506667 334.506667 0 0 0-0.853334 16.085333l-0.341333 18.218667-0.042667 320.725333 0.256 23.808 0.554667 13.994667 0.426667 6.4c1.365333 16.384 4.266667 31.914667 11.776 46.634666a119.466667 119.466667 0 0 0 52.181333 52.224c14.762667 7.509333 30.293333 10.410667 46.634667 11.733334 4.992 0.426667 10.325333 0.682667 16.042666 0.853333l18.261334 0.384 546.346666-0.042667z m10.752-351.573334l-92.885333-35.285333a1.92 1.92 0 0 1-1.237333-1.792v-130.048c0-4.394667 1.365333-8.704 3.925333-12.245333 4.693333-6.570667 9.258667-12.8 13.824-18.645334l3.925333-4.949333 8.448-10.197333 7.552-8.490667 6.4-6.698667 8.064-7.808c5.205333-4.864 10.666667-9.6 16.469334-14.208l4.906666-3.84 13.482667-9.728 10.581333-6.954666 10.666667-6.613334a1.92 1.92 0 0 1 2.005333 0c7.210667 4.48 13.909333 8.917333 20.138667 13.354667l9.130667 6.613333 10.069333 7.978667 8.106667 6.954667 8.533333 7.765333 8.106667 8.064 7.68 8.192a423.68 423.68 0 0 1 10.496 11.946667l10.24 12.458666 11.392 14.592a21.205333 21.205333 0 0 1 4.352 12.885334V324.266667a1.92 1.92 0 0 1-1.237334 1.792l-92.842666 35.285333a42.666667 42.666667 0 0 1-30.293334 0z m64.725334 113.792h-699.733334v-231.253333l0.213334-16.810667 0.64-16.725333 0.213333-2.858667c0.426667-5.205333 0.981333-9.216 1.621333-12.373333l1.408-5.205333a26.752 26.752 0 0 1 1.493334-3.626667 51.2 51.2 0 0 1 22.4-22.357333c3.498667-1.792 9.045333-3.541333 21.162666-4.522667l12.373334-0.682667 15.189333-0.298666 408.106667-0.085334a85.248 85.248 0 0 0-7.936 35.882667V324.266667c0 25.258667 14.421333 48.128 36.778666 59.136l5.76 2.517333 92.842667 35.242667a106.666667 106.666667 0 0 0 75.733333 0l11.733334-4.437334V475.093333z m-411.221334-160.938666c9.386667 0 17.066667-7.637333 17.066667-17.066667v-34.133333a17.066667 17.066667 0 0 0-17.066667-17.066667H223.274667a17.066667 17.066667 0 0 0-17.066667 17.066667v34.133333c0 9.429333 7.68 17.066667 17.066667 17.066667h207.914666z m334.549334 330.453333H219.392l-15.146667-0.298667-12.416-0.682666c-12.117333-0.981333-17.664-2.730667-21.162666-4.522667a51.2 51.2 0 0 1-22.4-22.357333 26.794667 26.794667 0 0 1-1.493334-3.626667l-1.408-5.248a103.253333 103.253333 0 0 1-1.621333-12.330667l-0.426667-5.888-0.426666-13.653333-0.170667-16.810667v-15.829333h699.733333l-0.128 25.6-0.298666 14.592-0.64 11.989333c-0.981333 12.117333-2.730667 17.664-4.522667 21.205334a51.2 51.2 0 0 1-22.4 22.357333c-3.498667 1.792-9.045333 3.541333-21.162667 4.522667l-12.373333 0.682666-15.189333 0.298667z"  horiz-adv-x="1024" />
      
      <glyph glyph-name="anquan" unicode="&#60431;" d="M498.304-29.866667l-0.469333-0.981333-0.042667-0.085333-0.213333 0.128-0.554667 0.213333-1.92 0.938667a1009.493333 1009.493333 0 0 0-32.256 16.384c-21.077333 11.178667-49.92 27.306667-81.109333 47.317333-61.013333 39.082667-136.192 95.957333-175.786667 161.706667-15.829333 26.24-25.386667 65.365333-31.786667 104.874666-6.613333 40.874667-10.538667 87.168-12.928 131.157334a2501.845333 2501.845333 0 0 0-3.328 119.722666V581.546667c0.085333 17.621333 0.341333 30.165333 0.469334 35.328a37.973333 37.973333 0 0 0 23.466666 34.304c12.885333 5.418667 75.392 31.744 142.506667 61.781333l24.106667 10.837333c59.989333 27.221333 117.205333 54.784 143.018666 71.424a38.144 38.144 0 0 0 41.557334-0.085333c25.6-16.554667 82.688-44.074667 142.677333-71.253333l24.064-10.88c67.157333-30.037333 129.749333-56.32 142.805333-61.824a37.973333 37.973333 0 0 0 23.466667-34.773334v-5.248l0.085333-7.808c0.085333-29.866667-0.298667-98.602667-4.608-171.861333-2.56-43.946667-6.656-90.026667-13.013333-130.730667-6.144-39.381333-15.061333-78.037333-29.397333-103.936-36.48-66.005333-112.426667-123.264-174.08-162.346666a1154.346667 1154.346667 0 0 0-115.84-64.213334l-1.962667-0.938666-0.554667-0.256c-0.085333 0-0.170667-0.042667-1.706666 3.328l1.493333-3.413334-14.378667-6.570666-14.293333 6.656 14.421333 30.933333-13.909333-29.866667z m13.866667 757.930667c-38.528-21.930667-102.272-51.626667-159.914667-77.44a7198.464 7198.464 0 0 0-125.952-54.784 2534.4 2534.4 0 0 1-0.170667-22.570667v-18.474666c0.128-32.853333 0.896-75.306667 3.285334-119.338667 2.304-42.794667 6.101333-86.4 12.16-123.904 6.272-38.826667 14.336-66.474667 22.826666-80.64 30.933333-51.242667 94.293333-101.034667 154.154667-139.392a1095.637333 1095.637333 0 0 1 93.781333-53.546667 1089.706667 1089.706667 0 0 1 96.128 54.186667c60.928 38.613333 123.477333 88.064 150.912 137.685333 8.021333 14.506667 15.616 42.581333 21.717334 81.493334 5.888 37.589333 9.770667 81.322667 12.288 124.16 3.882667 66.005333 4.48 128.426667 4.48 160.426666-26.453333 11.221333-74.88 31.914667-125.952 54.741334-57.6 25.770667-121.301333 55.466667-159.744 77.397333zM686.208 478.592a17.066667 17.066667 0 0 0 0-24.149333l-192-192a17.066667 17.066667 0 0 0-24.149333 0l-106.666667 106.666666a17.066667 17.066667 0 0 0 0 24.149334l24.149333 24.149333a17.066667 17.066667 0 0 0 24.149334 0L482.133333 346.88l155.776 155.818667a17.066667 17.066667 0 0 0 24.149334 0l24.149333-24.149334z"  horiz-adv-x="1024" />
      
      <glyph glyph-name="kualianwangguan" unicode="&#60432;" d="M320 768a192 192 0 1 0 0-384 192 192 0 0 0 0 384z m0-68.266667a123.733333 123.733333 0 1 1 0-247.466666 123.733333 123.733333 0 0 1 0 247.466666zM704 384a192 192 0 1 0 0-384 192 192 0 0 0 0 384z m0-68.266667a123.733333 123.733333 0 1 1 0-247.466666 123.733333 123.733333 0 0 1 0 247.466666zM742.656 720.810667a8.533333 8.533333 0 0 0 12.074667 0l138.752-138.794667a8.533333 8.533333 0 0 0 0-12.032l-138.794667-138.794667a8.533333 8.533333 0 0 0-12.032 0l-36.096 36.053334a8.533333 8.533333 0 0 0 0 12.074666L769.109333 541.866667h-184.746666a8.533333 8.533333 0 0 0-8.533334 8.533333V601.6c0 4.693333 3.84 8.533333 8.533334 8.533333h184.576l-62.464 62.464a8.533333 8.533333 0 0 0 0 12.074667l36.181333 36.138667zM281.344 336.810667a8.533333 8.533333 0 0 1-12.074667 0L130.56 198.016a8.533333 8.533333 0 0 1 0-12.032l138.752-138.794667a8.533333 8.533333 0 0 1 12.074667 0l36.096 36.053334a8.533333 8.533333 0 0 1 0 12.074666L254.890667 157.866667h184.746666a8.533333 8.533333 0 0 1 8.533334 8.533333v51.2a8.533333 8.533333 0 0 1-8.533334 8.533333H255.018667l62.464 62.464a8.533333 8.533333 0 0 1 0 12.074667l-36.138667 36.138667z"  horiz-adv-x="1024" />
      
      <glyph glyph-name="pianhao" unicode="&#60433;" d="M584.32 746.624c7.722667 0 15.274667-2.346667 21.589333-6.784 6.272-4.437333 11.008-10.666667 13.482667-17.92l22.528-66.304a36.437333 36.437333 0 0 1 16.597333-19.882667 37.504 37.504 0 0 1 25.856-4.053333l69.376 13.781333a37.546667 37.546667 0 0 0 22.613334-2.432 36.693333 36.693333 0 0 0 16.896-14.976l73.813333-125.44a35.754667 35.754667 0 0 0-4.437333-42.453333l-47.232-52.224a35.882667 35.882667 0 0 1 0-47.872l49.834666-52.224a35.968 35.968 0 0 0 4.437334-42.410667l-73.813334-125.44a36.693333 36.693333 0 0 0-16.896-15.018666 37.546667 37.546667 0 0 0-22.613333-2.432l-69.418667 13.781333a37.546667 37.546667 0 0 1-25.856-4.053333 36.394667 36.394667 0 0 1-16.597333-19.882667l-22.528-66.346667a36.352 36.352 0 0 0-13.482667-17.92 37.333333 37.333333 0 0 0-21.546666-6.741333h-147.669334a37.376 37.376 0 0 0-22.698666 6.229333 36.352 36.352 0 0 0-14.208 18.432l-22.528 66.346667a36.394667 36.394667 0 0 1-16.64 19.882667 37.504 37.504 0 0 1-25.813334 4.053333l-69.418666-13.781333a37.546667 37.546667 0 0 0-22.613334 2.432 36.693333 36.693333 0 0 0-16.896 14.976l-73.813333 125.44a35.754667 35.754667 0 0 0 3.712 42.453333l46.848 52.224a35.882667 35.882667 0 0 1 0 47.872l-46.848 52.224a35.925333 35.925333 0 0 0-3.712 42.410667l73.813333 125.44a36.693333 36.693333 0 0 0 15.786667 14.208 37.504 37.504 0 0 0 21.162667 3.242666l71.253333-13.781333a37.504 37.504 0 0 1 25.813333 4.053333 36.394667 36.394667 0 0 1 16.64 19.882667l20.650667 66.346667a36.352 36.352 0 0 0 14.250667 18.432 37.418667 37.418667 0 0 0 22.656 6.229333h147.626666z m-22.186667-68.266667h-104.490666l-13.653334-43.989333-0.341333-0.938667a104.661333 104.661333 0 0 0-47.658667-57.173333 105.770667 105.770667 0 0 0-72.533333-11.562667L275.754667 573.866667 225.194667 487.850667l30.890666-34.389334a104.149333 104.149333 0 0 0 0-138.88L256 314.453333l-30.805333-34.304 50.816-86.4 47.957333 9.514667a105.770667 105.770667 0 0 0 72.746667-11.52c22.186667-12.501333 39.253333-32.768 47.658666-57.173333l0.085334-0.256 15.146666-44.672h105.088l15.232 44.928a104.704 104.704 0 0 0 47.658667 57.173333 105.728 105.728 0 0 0 72.96 11.52l47.744-9.514667 50.133333 85.205334-33.152 34.773333-0.768 0.853333a104.106667 104.106667 0 0 0 0 138.88l0.298667 0.256 31.402667 34.730667-50.517334 85.76-47.786666-9.429333-0.128-0.042667a105.770667 105.770667 0 0 0-72.789334 11.52 104.661333 104.661333 0 0 0-47.658666 57.173333l-0.085334 0.213334-15.146666 44.714666zM512 524.8a140.8 140.8 0 1 0 0-281.6 140.8 140.8 0 0 0 0 281.6z m0-68.266667a72.533333 72.533333 0 1 1 0-145.066666 72.533333 72.533333 0 0 1 0 145.066666z"  horiz-adv-x="1024" />
      
      <glyph glyph-name="hua" unicode="&#60434;" d="M512 778.666667a394.666667 394.666667 0 1 0 0-789.333334 394.666667 394.666667 0 0 0 0 789.333334z m0-68.266667a326.4 326.4 0 1 1 0-652.8 326.4 326.4 0 0 1 0 652.8zM575.232 576a17.066667 17.066667 0 0 0 24.021333-2.645333l107.946667-134.954667a8.533333 8.533333 0 0 0-6.698667-13.866667H322.986667a17.066667 17.066667 0 0 0-17.066667 17.066667v34.133333c0 9.429333 7.637333 17.066667 17.066667 17.066667h253.226666l-30.293333 37.888A17.066667 17.066667 0 0 0 548.608 554.666667l26.624 21.333333zM448.938667 189.866667a17.066667 17.066667 0 0 0-23.978667 2.645333l-107.946667 134.954667A8.533333 8.533333 0 0 0 323.669333 341.333333h377.514667c9.429333 0 17.066667-7.68 17.066667-17.066666v-34.133334a17.066667 17.066667 0 0 0-17.066667-17.066666H448l30.293333-37.888a17.066667 17.066667 0 0 0-2.645333-23.978667l-26.666667-21.333333z"  horiz-adv-x="1024" />
      
      <glyph glyph-name="ti" unicode="&#60435;" d="M785.066667 341.333333A273.066667 273.066667 0 1 0 295.68 507.946667a17.92 17.92 0 0 1-2.048 24.448l-25.685333 22.485333a16.426667 16.426667 0 0 1-23.765334-1.877333 341.333333 341.333333 0 1 1 535.594667 0 16.426667 16.426667 0 0 1-23.722667 1.877333l-25.685333-22.485333a17.92 17.92 0 0 1-2.005333-24.448A271.872 271.872 0 0 0 785.066667 341.333333zM500.906667 760.746667a17.066667 17.066667 0 0 0 22.186666 0l147.498667-126.378667a17.066667 17.066667 0 0 0 1.834667-24.064l-22.186667-25.941333a17.066667 17.066667 0 0 0-24.064-1.834667L546.133333 651.136V273.066667a17.066667 17.066667 0 0 0-17.066666-17.066667h-34.133334a17.066667 17.066667 0 0 0-17.066666 17.066667V651.093333L397.824 582.570667a17.066667 17.066667 0 0 0-24.064 1.834666l-22.186667 25.941334a17.066667 17.066667 0 0 0 1.834667 24.064L500.906667 760.746667z"  horiz-adv-x="1024" />
      
      <glyph glyph-name="yaoqinghaoyou" unicode="&#60436;" d="M660.48 765.653333c11.221333 0 22.101333-4.096 30.592-11.52l103.722667-90.752c10.069333-8.832 15.872-21.589333 15.872-34.986666v-227.84l-68.266667-32.256V618.496l-90.112 78.890667H281.6l-0.042667-345.472L213.333333 384V719.189333c0 25.642667 20.821333 46.464 46.464 46.464zM837.333333 423.850667a16.554667 16.554667 0 0 0 23.125334-15.146667v-359.893333c0-25.642667-19.882667-46.421333-44.373334-46.421334H207.914667c-24.490667 0-44.373333 20.778667-44.373334 46.421334v359.808c0 11.904 12.202667 19.925333 23.125334 15.232l299.178666-128.213334c16.682667-7.168 35.584-7.168 52.309334 0z m-45.141333-93.610667l-227.157333-97.322667c-33.877333-14.506667-72.192-14.506667-106.069334 0L231.808 330.24v-259.626667h560.384V330.24zM506.069333 621.141333a6.656 6.656 0 0 0 11.861334 0l31.530666-62.421333 66.858667-12.373333c5.12-0.938667 7.253333-7.168 3.712-11.008L572.586667 483.754667l9.472-70.570667a6.656 6.656 0 0 0-9.642667-6.826667L512 437.504l-60.501333-31.061333a6.656 6.656 0 0 0-9.6 6.784l9.472 70.570666-47.402667 51.584a6.656 6.656 0 0 0 3.669333 11.008l66.901334 12.373334 31.530666 62.421333z"  horiz-adv-x="1024" />
      
      <glyph glyph-name="zhuanbi" unicode="&#60437;" d="M530.432 527.061333c48.64 0 89.216-22.101333 93.098667-67.968 2.944-33.536-11.306667-53.504-33.877334-64.682666 36.821333-9.258667 59.690667-31.488 54.613334-80.64-6.4-60.970667-54.613333-79.829333-117.162667-79.829334H436.906667a44.928 44.928 0 0 0-44.928 44.928V482.133333c0 24.832 20.053333 44.928 44.928 44.928z m0-155.904h-53.504a22.442667 22.442667 0 0 1-22.442667-22.485333v-40.490667c0-12.373333 10.026667-22.485333 22.442667-22.485333h53.845333c4.010667 0.298667 39.936 3.584 39.936 43.008 0 38.058667-40.277333 42.453333-40.277333 42.453333z m-17.322667 118.272h-34.858666a22.357333 22.357333 0 0 1-22.4-22.4v-32.426666c0-12.416 10.069333-22.485333 22.485333-22.485334h36.096c6.4 0.213333 33.536 3.242667 34.048 37.973334 0.597333 38.101333-35.413333 39.338667-35.413333 39.338666zM472.106667 554.325333a17.066667 17.066667 0 0 0 17.066666 17.066667h25.045334c9.386667 0 17.066667-7.637333 17.066666-17.066667v-32.256h-59.178666v32.256zM472.106667 242.517333h59.178666v-32.256a17.066667 17.066667 0 0 0-17.066666-17.066666h-25.088a17.066667 17.066667 0 0 0-17.066667 17.066666v32.256zM522.666667 778.581333a394.666667 394.666667 0 1 0-329.045334-627.754666 10.453333 10.453333 0 0 0 2.56 14.762666l38.570667 26.709334a10.922667 10.922667 0 0 0 14.976-2.56A326.4 326.4 0 1 1 522.666667 710.314667a10.965333 10.965333 0 0 0-10.666667 10.837333v46.933333c0 5.888 4.821333 10.666667 10.666667 10.496z m-339.882667-467.2a10.965333 10.965333 0 0 0 12.885333-8.106666 324.266667 324.266667 0 0 1 13.226667-40.533334 10.965333 10.965333 0 0 0-5.632-14.122666l-42.922667-18.901334a10.453333 10.453333 0 0 0-13.952 5.546667 392.405333 392.405333 0 0 0-17.450666 53.333333 10.453333 10.453333 0 0 0 7.978666 12.714667zM131.413333 451.242667l2.474667-0.128 46.208-8.149334a10.965333 10.965333 0 0 0 8.832-12.373333 331.861333 331.861333 0 0 1-3.328-42.709333 10.965333 10.965333 0 0 0-10.624-10.88l-46.933333-0.938667a10.453333 10.453333 0 0 0-10.709334 10.453333 399.786667 399.786667 0 0 0 4.309334 55.893334 10.453333 10.453333 0 0 0 12.245333 8.704z m42.24 136.192a10.453333 10.453333 0 0 0 14.634667 3.328l39.552-25.301334c4.949333-3.157333 6.4-9.770667 3.413333-14.805333-7.253333-12.202667-13.738667-24.917333-19.370666-38.058667a10.965333 10.965333 0 0 0-13.994667-6.016l-43.733333 17.066667a10.453333 10.453333 0 0 0-5.930667 13.738667c7.338667 17.365333 15.829333 34.090667 25.472 50.048zM277.333333 701.354667a10.453333 10.453333 0 0 0 14.762667-2.56l26.88-38.4a10.922667 10.922667 0 0 0-2.517333-15.018667c-11.434667-8.533333-22.272-17.834667-32.469334-27.818667a10.922667 10.922667 0 0 0-15.232-0.170666l-33.834666 32.512a10.453333 10.453333 0 0 0-0.213334 14.933333c13.312 13.184 27.562667 25.386667 42.624 36.522667z m139.264 65.749333a10.453333 10.453333 0 0 0 12.672-7.978667l10.112-45.824a10.922667 10.922667 0 0 0-8.106666-12.885333 324.096 324.096 0 0 1-40.533334-13.226667 10.965333 10.965333 0 0 0-14.165333 5.589334l-18.901333 42.965333a10.453333 10.453333 0 0 0 5.546666 13.952 392.362667 392.362667 0 0 0 53.376 17.408z"  horiz-adv-x="1024" />
      
      <glyph glyph-name="Affiliates" unicode="&#60438;" d="M264.533333 303.488l222.890667-146.56c25.813333-16.981333 32.213333-20.864 38.314667-23.338667 12.117333-4.992 25.258667-6.997333 38.314666-5.845333 6.528 0.597333 13.824 2.432 43.52 10.965333 24.149333 6.954667 39.424 11.392 50.688 15.488 11.008 3.968 13.312 5.973333 13.184 5.845334 5.162667 4.266667 8.96 9.813333 11.008 15.957333l0.042667-0.128c5.674667-9.685333 8.490667-14.506667 12.544-17.450667 3.541333-2.56 7.765333-4.096 12.16-4.437333 4.992-0.341333 10.24 1.578667 20.821333 5.376l13.098667 4.650667a94.506667 94.506667 0 0 0-31.914667-50.261334c-14.976-12.202667-38.4-18.944-85.12-32.426666-27.434667-7.893333-41.130667-11.861333-54.784-13.056a141.824 141.824 0 0 0-66.218666 10.026666c-12.672 5.205333-24.618667 13.056-48.469334 28.714667l-200.96 132.096a42.666667 42.666667 0 0 1 6.272 9.130667c4.693333 9.130667 4.693333 21.077333 4.693334 44.970666l-0.085334 10.24z m127.488 314.069333c14.336 0 26.368-0.085333 36.778667-0.426666a2231.04 2231.04 0 0 0-77.397333-59.306667H264.533333l0.042667 22.314667c-0.042667 16.64-0.426667 26.624-3.242667 34.304l-1.408 3.157333zM438.912 625.493333c29.909333 25.173333 77.44 50.944 164.138667 12.373334a3025.066667 3025.066667 0 0 0 95.146666-44.586667c23.168-11.221333 44.842667-21.717333 68.736-32.426667l-0.042666-0.128-2.730667-4.608c-4.693333-9.130667-4.693333-21.077333-4.693333-44.970666v-12.16c-32.853333 14.165333-60.970667 27.733333-90.538667 42.069333-27.221333 13.141333-55.68 26.88-90.154667 42.24-34.944 15.530667-56.277333 15.701333-68.48 13.482667-12.373333-2.218667-22.357333-8.106667-32.938666-17.024a2182.954667 2182.954667 0 0 0-118.272-90.112c-23.509333-25.856-28.245333-44.458667-28.586667-54.016a30.165333 30.165333 0 0 1 10.88-24.32c18.944-17.152 49.066667-17.578667 66.005333-1.322667l2.986667 2.858667 35.541333 25.6 1.365334 1.024c8.192 5.888 17.066667 12.288 25.173333 17.152 9.088 5.461333 22.101333 12.074667 38.698667 14.165333a97.536 97.536 0 0 0 62.506666-13.226667c14.336-8.661333 23.509333-20.053333 29.610667-28.714666 5.461333-7.722667 10.965333-17.194667 16.042667-25.898667l0.853333-1.450667 104.746667-179.754666 34.56 12.458666v-9.984c0.085333-16.64 0.426667-26.624 3.285333-34.304l1.408-3.157333a42.666667 42.666667 0 0 1 8.405333-11.349333l-44.544-16.042667c-10.538667-3.84-15.829333-5.717333-20.821333-5.333333a23.637333 23.637333 0 0 0-12.16 4.394666c-4.053333 2.944-6.869333 7.765333-12.544 17.493334l-113.962667 195.498666c-11.648 19.968-17.493333 29.952-25.728 34.986667a37.845333 37.845333 0 0 1-24.234666 5.12c-9.6-1.194667-18.944-7.978667-37.717334-21.504l-32.128-23.168c-86.357333-82.688-263.765333 27.264-129.152 168.021333a2147.84 2147.84 0 0 1 119.338667 90.624zM896.298667 579.413333c18.986667-0.085333 29.312-0.512 37.418666-4.693333a42.666667 42.666667 0 0 0 18.688-18.602667c4.608-9.130667 4.608-21.077333 4.608-44.970666v-286.933334c0-18.986667-0.512-29.354667-4.608-37.461333a42.666667 42.666667 0 0 0-18.688-18.645333c-9.088-4.650667-21.034667-4.650667-44.928-4.650667h-68.565333c-18.986667 0.042667-29.312 0.512-37.461333 4.693333a42.666667 42.666667 0 0 0-18.602667 18.602667c-4.693333 9.130667-4.693333 21.077333-4.693333 44.970667V518.656c0.085333 18.986667 0.554667 29.354667 4.693333 37.461333a42.666667 42.666667 0 0 0 18.602667 18.645334c9.173333 4.650667 21.077333 4.650667 45.013333 4.650666z m-7.552-59.733333H819.2v-296.490667h78.08V519.68h-8.533333zM203.861333 640.853333c18.986667 0 29.312-0.469333 37.418667-4.608a42.666667 42.666667 0 0 0 18.645333-18.645333c4.693333-9.130667 4.693333-21.077333 4.693334-44.970667L264.533333 285.653333c-0.042667-18.944-0.512-29.312-4.650666-37.418666a42.666667 42.666667 0 0 0-18.645334-18.645334c-9.130667-4.650667-21.077333-4.650667-44.970666-4.650666H127.701333c-18.986667 0.042667-29.312 0.512-37.418666 4.693333a42.666667 42.666667 0 0 0-18.645334 18.602667c-4.693333 9.130667-4.693333 21.077333-4.693333 44.970666V580.138667c0.085333 18.986667 0.554667 29.354667 4.693333 37.461333a42.666667 42.666667 0 0 0 18.645334 18.645333c9.088 4.650667 21.077333 4.650667 44.970666 4.650667zM196.266667 581.12H126.72v-296.448H204.8V581.162667h-8.490667z"  horiz-adv-x="1024" />
      
      <glyph glyph-name="API2" unicode="&#60439;" d="M588.202667 687.957333l3.413333-0.597333 32.810667-9.386667a17.066667 17.066667 0 0 0 11.690666-21.12l-161.28-564.48a17.066667 17.066667 0 0 0-21.077333-11.733333l-32.853333 9.386667a17.066667 17.066667 0 0 0-11.690667 21.077333l161.28 564.522667a17.066667 17.066667 0 0 0 21.077333 11.733333z m-281.045334-122.026666l25.685334-22.485334a17.066667 17.066667 0 0 0 1.621333-24.106666l-108.586667-124.117334a17.066667 17.066667 0 0 1 0-22.442666l108.586667-124.16a17.066667 17.066667 0 0 0-1.621333-24.064l-25.685334-22.442667a17.066667 17.066667 0 0 0-24.064 1.578667l-147.925333 169.088a17.066667 17.066667 0 0 0 0 22.442666l147.925333 169.088a17.066667 17.066667 0 0 0 24.064 1.578667z m409.685334 0a17.066667 17.066667 0 0 0 24.106666-1.621334l147.925334-169.088a17.066667 17.066667 0 0 0 0-22.442666l-147.925334-169.088a17.066667 17.066667 0 0 0-24.106666-1.578667l-25.685334 22.442667a17.066667 17.066667 0 0 0-1.621333 24.106666l108.629333 124.117334a17.066667 17.066667 0 0 1 0 22.442666l-108.629333 124.16a17.066667 17.066667 0 0 0 1.621333 24.064z"  horiz-adv-x="1024" />
      
      <glyph glyph-name="Brokern" unicode="&#60440;" d="M183.253333 591.701333a119.466667 119.466667 0 0 0 119.466667 119.466667h504.277333a119.466667 119.466667 0 0 0 119.466667-119.466667v-415.402666a119.466667 119.466667 0 0 0-119.466667-119.466667h-249.386666a17.066667 17.066667 0 0 0-17.066667 17.066667v34.133333c0 9.429333 7.68 17.066667 17.066667 17.066667h249.386666a51.2 51.2 0 0 1 51.2 51.2V591.701333a51.2 51.2 0 0 1-51.2 51.2H302.677333a51.2 51.2 0 0 1-51.2-51.2v-29.738666a17.066667 17.066667 0 0 0-17.066666-17.066667h-34.133334a17.066667 17.066667 0 0 0-17.066666 17.066667v29.738666zM285.610667 485.546667a116.992 116.992 0 1 0 0-233.984 116.992 116.992 0 0 0 0 233.941333z m0-68.266667a48.725333 48.725333 0 1 1 0-97.450667 48.725333 48.725333 0 0 1 0 97.408zM100.736 88.533333c17.237333 76.928 105.045333 137.514667 184.832 137.514667 80.128 0 168.277333-58.154667 185.088-137.472 1.578667-7.381333 2.346667-11.093333 0.853333-15.530667a19.2 19.2 0 0 0-7.466666-9.216c-4.053333-2.389333-8.618667-2.389333-17.834667-2.389333h-13.653333c-9.045333 0-13.568 0-16.512 1.152a13.397333 13.397333 0 0 0-6.784 4.736c-2.048 2.432-4.266667 8.576-8.704 20.906667-16.298667 45.226667-71.68 74.325333-114.986667 74.325333-43.178667 0-98.474667-29.44-114.816-74.368-4.522667-12.330667-6.741333-18.474667-8.832-20.906667a13.354667 13.354667 0 0 0-6.741333-4.693333c-2.986667-1.152-7.466667-1.152-16.512-1.152h-13.653334c-9.130667 0-13.738667 0-17.749333 2.432a19.370667 19.370667 0 0 0-7.509333 9.301333c-1.450667 4.48-0.64 8.106667 0.981333 15.36zM819.712 483.2a17.066667 17.066667 0 0 0-0.170667-24.32l-152.832-148.565333a17.066667 17.066667 0 0 0-21.930666-1.536l-77.226667 56.192-105.685333-105.685334a17.066667 17.066667 0 0 0-24.149334 0l-28.970666 28.970667a17.066667 17.066667 0 0 0 0 24.106667l141.44 141.44a17.066667 17.066667 0 0 0 22.101333 1.706666l77.056-56.064 117.461333 112.981334a17.066667 17.066667 0 0 0 23.893334-0.213334l29.013333-29.013333z"  horiz-adv-x="1024" />
      
      <glyph glyph-name="deposit" unicode="&#60441;" d="M785.066667 341.333333A273.066667 273.066667 0 1 0 295.68 507.946667a17.92 17.92 0 0 1-2.048 24.448l-25.685333 22.485333a16.426667 16.426667 0 0 1-23.765334-1.877333 341.333333 341.333333 0 1 1 535.594667 0 16.426667 16.426667 0 0 1-23.722667 1.877333l-25.685333-22.485333a17.92 17.92 0 0 1-2.005333-24.448A271.872 271.872 0 0 0 785.066667 341.333333zM523.093333 222.848a17.066667 17.066667 0 0 0-22.186666 0l-147.498667 126.421333a17.066667 17.066667 0 0 0-1.834667 24.064l22.186667 25.898667a17.066667 17.066667 0 0 0 24.064 1.877333l80.042667-68.608v378.026667c0 9.472 7.637333 17.066667 17.066666 17.066667h34.133334c9.386667 0 17.066667-7.594667 17.066666-17.066667v-378.026667l80 68.608a17.066667 17.066667 0 0 0 24.106667-1.877333l22.186667-25.898667a17.066667 17.066667 0 0 0-1.834667-24.064l-147.498667-126.421333z"  horiz-adv-x="1024" />
      
      <glyph glyph-name="feeshouxufei" unicode="&#60442;" d="M512 778.666667a394.666667 394.666667 0 1 0 0-789.333334 394.666667 394.666667 0 0 0 0 789.333334z m0-68.266667a326.4 326.4 0 1 1 0-652.8 326.4 326.4 0 0 1 0 652.8z m125.184-152.917333l48.298667-48.298667-298.666667-298.666667-48.298667 48.298667 298.666667 298.666667zM629.333333 320a53.333333 53.333333 0 1 0 0-106.666667 53.333333 53.333333 0 0 0 0 106.666667zM394.666667 554.666667a53.333333 53.333333 0 1 0 0-106.666667 53.333333 53.333333 0 0 0 0 106.666667z"  horiz-adv-x="1024" />
      
      <glyph glyph-name="cloud" unicode="&#60443;" d="M515.285333 762.282667c123.733333 0 227.456-85.376 255.573334-200.405334a269.568 269.568 0 0 0-86.442667-524.8h-347.733333A264.832 264.832 0 0 0 258.346667 555.52l0.128 0.896a263.125333 263.125333 0 0 0 256.853333 205.909333z m0-68.266667a194.901333 194.901333 0 0 1-182.784-127.317333h2.432a264.106667 264.106667 0 0 0 186.026667-76.288l4.864-4.821334c6.826667-6.698667 10.197333-10.069333 11.52-13.952a17.066667 17.066667 0 0 0 0-10.538666c-1.194667-3.925333-4.565333-7.296-11.264-14.08l-9.6-9.770667c-6.698667-6.784-10.069333-10.197333-13.952-11.477333a17.066667 17.066667 0 0 0-10.538667-0.085334c-3.925333 1.28-7.338667 4.608-14.122666 11.306667l-4.864 4.821333a196.565333 196.565333 0 1 1-138.069334-336.469333l1.578667-0.042667h347.904a201.216 201.216 0 0 1 93.866667 379.306667 263.125333 263.125333 0 0 0-262.997334-254.890667h-12.032c-6.229333 0.085333-9.856 0.426667-12.8 1.877334a17.066667 17.066667 0 0 0-7.424 7.466666c-1.877333 3.626667-1.877333 8.405333-1.877333 17.962667v18.858667c0.085333 6.229333 0.384 9.898667 1.877333 12.8a17.066667 17.066667 0 0 0 7.466667 7.466666c3.626667 1.834667 8.405333 1.834667 17.962667 1.834667h6.826666a194.773333 194.773333 0 0 1 194.773334 194.816V499.2a194.773333 194.773333 0 0 1-194.773334 194.816z"  horiz-adv-x="1024" />
      
      <glyph glyph-name="freebtc" unicode="&#60444;" d="M542.08 804.949333l110.933333-80.597333 135.338667-21.418667a51.2 51.2 0 0 0 42.581333-42.581333l21.418667-135.381333 80.597333-110.890667a51.2 51.2 0 0 0 0-60.16l-80.597333-110.933333-21.418667-135.338667a51.2 51.2 0 0 0-42.581333-42.581333l-135.381333-21.418667-110.890667-80.597333a51.2 51.2 0 0 0-60.16 0l-110.933333 80.597333-135.338667 21.418667a51.2 51.2 0 0 0-42.581333 42.581333l-21.418667 135.381333-80.597333 110.890667a51.2 51.2 0 0 0 0 60.16l80.597333 110.933333 21.418667 135.338667a51.2 51.2 0 0 0 42.581333 42.581333l135.381333 21.418667 110.890667 80.597333a51.2 51.2 0 0 0 60.16 0zM512 742.4L409.472 667.946667a59.733333 59.733333 0 0 0-25.770667-10.666667L258.56 637.44l-19.797333-125.141333a59.733333 59.733333 0 0 0-10.666667-25.770667L153.6 384l74.453333-102.528a59.733333 59.733333 0 0 0 10.666667-25.770667l19.84-125.141333 125.141333-19.797333a59.733333 59.733333 0 0 0 25.770667-10.666667L512 25.6l102.528 74.453333a59.733333 59.733333 0 0 0 25.770667 10.666667l125.141333 19.84 19.797333 125.141333a59.733333 59.733333 0 0 0 10.666667 25.770667L870.4 384l-74.453333 102.528a59.733333 59.733333 0 0 0-10.666667 25.770667L765.44 637.44l-125.141333 19.797333a59.733333 59.733333 0 0 0-25.770667 10.666667L512 742.4zM538.922667 535.210667c50.773333 0 93.184-23.082667 97.28-70.997334 2.986667-35.029333-11.861333-55.893333-35.413334-67.541333 38.442667-9.685333 62.336-32.853333 57.002667-84.181333-6.613333-63.701333-57.002667-83.413333-122.282667-83.413334h-96.256a44.928 44.928 0 0 0-44.928 44.928V490.282667c0 24.789333 20.053333 44.928 44.885334 44.928z m0-162.858667H482.133333a22.485333 22.485333 0 0 1-22.442666-22.485333v-44.245334c0-12.373333 10.026667-22.485333 22.442666-22.485333h56.874667s42.069333 1.28 42.069333 44.928c0 39.722667-42.069333 44.288-42.069333 44.288z m-18.048 123.52h-37.418667a22.357333 22.357333 0 0 1-22.357333-22.4v-35.84c0-12.416 10.069333-22.485333 22.442666-22.485333h38.570667c6.4 0.213333 35.157333 3.114667 35.712 39.68 0.597333 39.765333-36.949333 41.045333-36.949333 41.045333zM478.037333 564.394667a17.066667 17.066667 0 0 0 17.066667 17.066666h27.690667c9.386667 0 17.066667-7.637333 17.066666-17.066666v-34.432h-61.866666v34.432zM478.037333 238.08h61.824v-34.474667a17.066667 17.066667 0 0 0-17.066666-17.066666h-27.733334a17.066667 17.066667 0 0 0-17.066666 17.066666v34.432z"  horiz-adv-x="1024" />
      
      <glyph glyph-name="okchain" unicode="&#60445;" d="M203.648 516.565333l-0.938667-316.501333 275.754667-159.232 0.896 316.501333-275.712 159.232zM139.818667 568.661333a33.92 33.92 0 0 0 50.858666 29.269334l335.786667-193.877334a33.92 33.92 0 0 0 16.981333-29.44l-1.152-385.877333a33.92 33.92 0 0 0-50.858666-29.269333l-335.786667 193.877333a33.92 33.92 0 0 0-16.981333 29.44l1.152 385.877333zM816.682667 516.181333l-273.322667-158.848-0.896-316.117333 273.28 158.848 0.938667 316.16z m13.226666 81.706667a33.92 33.92 0 0 0 50.944-29.44l-1.152-385.834667a33.92 33.92 0 0 0-16.853333-29.226666l-333.610667-193.877334a33.92 33.92 0 0 0-50.944 29.44l1.152 385.834667c0 12.032 6.442667 23.168 16.853334 29.226667l333.610666 193.877333zM509.312 731.008L235.648 571.989333l275.754667-159.189333 273.621333 159.018667-275.712 159.189333z m-17.066667 64.085333a33.92 33.92 0 0 0 33.962667 0.042667l335.786667-193.877333a33.92 33.92 0 0 0 0.085333-58.666667l-333.610667-193.92a33.92 33.92 0 0 0-33.962666 0L158.72 542.506667a33.92 33.92 0 0 0-0.128 58.666666l333.653333 193.877334z"  horiz-adv-x="1024" />
      
      <glyph glyph-name="happyFriday" unicode="&#60446;" d="M410.453333 567.168c86.272-144.213333 162.389333-224.170667 297.045334-301.184 24.789333-14.208 24.064-51.072-1.92-63.018667L200.533333-28.586667c-53.973333-24.746667-109.610667 30.890667-84.906666 84.864l154.538666 336.810667a34.133333 34.133333 0 0 0 4.522667 9.941333l74.026667 161.365334c11.648 25.429333 47.36 26.837333 61.696 2.816z m-25.6-87.808l-45.952-100.266667c12.885333-52.906667 59.52-105.472 116.138667-127.36a34.133333 34.133333 0 1 0-24.576-63.658666c-52.48 20.266667-99.541333 59.989333-129.493333 108.288l-118.4-258.133334 437.973333 200.874667c-98.901333 64.682667-167.68 136.533333-235.690667 240.256zM626.432 758.784a12.8 12.8 0 0 0 19.328 9.813333l92.245333-54.997333a12.8 12.8 0 0 1 9.386667-1.493333l104.746667 23.808a12.8 12.8 0 0 0 15.36-15.317334l-23.808-104.746666a12.8 12.8 0 0 1 1.493333-9.386667l54.954667-92.288a12.8 12.8 0 0 0-9.813334-19.285333l-106.965333-9.728a12.8 12.8 0 0 1-8.448-4.309334l-70.784-80.810666a12.8 12.8 0 0 0-21.376 3.370666l-42.325333 98.730667a12.8 12.8 0 0 1-6.741334 6.698667l-98.730666 42.325333a12.8 12.8 0 0 0-3.370667 21.418667l80.810667 70.741333a12.8 12.8 0 0 1 4.309333 8.490667z m60.032-93.866667l-1.749333-19.328a81.066667 81.066667 0 0 0-27.349334-53.632l-14.549333-12.714666 17.792-7.68a81.066667 81.066667 0 0 0 42.538667-42.538667l7.637333-17.792 12.757333 14.592a81.066667 81.066667 0 0 0 53.632 27.306667l19.285334 1.749333-9.941334 16.64a81.066667 81.066667 0 0 0-9.386666 59.434667l4.266666 18.901333-18.858666-4.266667a81.066667 81.066667 0 0 0-59.477334 9.386667l-16.64 9.898667zM890.88 327.082667a34.133333 34.133333 0 0 0-31.872-36.224l-71.082667-4.522667a34.133333 34.133333 0 0 0-4.309333 68.138667l71.082667 4.522666a34.133333 34.133333 0 0 0 36.224-31.914666zM469.973333 748.714667a34.133333 34.133333 0 0 0 33.109334-35.157334l-2.176-71.168a34.133333 34.133333 0 1 0-68.266667 2.090667l2.176 71.168a34.133333 34.133333 0 0 0 35.157333 33.066667z"  horiz-adv-x="1024" />
      
      <glyph glyph-name="jumpstart" unicode="&#60447;" d="M873.728 783.914667a12.8 12.8 0 0 1-19.029333 11.221333l-258.858667-143.786667a12.8 12.8 0 0 1-6.570667-11.221333V581.546667a12.8 12.8 0 0 1 19.029334-11.178667l258.816 143.786667a12.8 12.8 0 0 1 6.613333 11.221333V783.914667zM873.728 606.464a12.8 12.8 0 0 1-19.029333 11.178667l-145.066667-80.597334a12.8 12.8 0 0 1-6.570667-11.178666v-58.581334a12.8 12.8 0 0 1 18.986667-11.178666l145.066667 80.597333a12.8 12.8 0 0 1 6.613333 11.178667V606.464zM873.728 433.578667v-58.581334a12.8 12.8 0 0 0-6.613333-11.178666l-329.642667-183.125334a12.8 12.8 0 0 0-18.986667 11.178667V250.453333a12.8 12.8 0 0 0 6.570667 11.178667l329.642667 183.125333a12.8 12.8 0 0 0 19.029333-11.178666zM219.221333 553.045333v-338.090666L512 45.909333l292.821333 169.045334 49.066667 28.16a12.8 12.8 0 0 0 19.2-11.093334v-49.066666a12.8 12.8 0 0 0-6.4-11.093334L533.333333-20.650667a42.666667 42.666667 0 0 0-42.666666 0l-318.378667 183.808a42.666667 42.666667 0 0 0-21.333333 36.949334V567.808a42.666667 42.666667 0 0 0 21.333333 36.949333l320.512 185.088a12.8 12.8 0 0 0 19.2-11.093333v-49.28a12.8 12.8 0 0 0-6.4-11.093333L219.221333 553.045333z"  horiz-adv-x="1024" />
      
      <glyph glyph-name="overview" unicode="&#60448;" d="M509.141333 735.232l0.512-68.266667-7.978666-0.128a307.2 307.2 0 1 1 270.805333-144.085333l57.344 37.034667a375.466667 375.466667 0 1 0-320.682667 175.445333zM720.64 741.12c69.632-37.546667 121.002667-92.117333 164.778667-155.562667a25.045333 25.045333 0 0 0-7.296-35.157333l-373.674667-241.578667a17.066667 17.066667 0 0 0-26.325333 14.208L474.794667 768a25.045333 25.045333 0 0 0 25.429333 25.386667c77.056-1.706667 150.869333-14.677333 220.458667-52.266667z m-167.936-17.792a8.362667 8.362667 0 0 1-9.258667-8.448l2.218667-298.112 250.368 161.834667a8.362667 8.362667 0 0 1 2.005333 12.373333 371.2 371.2 0 0 1-245.333333 132.352z"  horiz-adv-x="1024" />
      
      <glyph glyph-name="status" unicode="&#60449;" d="M810.666667 716.8A119.466667 119.466667 0 0 0 930.133333 597.333333v-341.333333a119.466667 119.466667 0 0 0-119.466666-119.466667H213.333333A119.466667 119.466667 0 0 0 93.866667 256V597.333333A119.466667 119.466667 0 0 0 213.333333 716.8h597.333334z m0-68.266667H213.333333A51.2 51.2 0 0 1 162.133333 597.333333v-341.333333A51.2 51.2 0 0 1 213.333333 204.8h597.333334a51.2 51.2 0 0 1 51.2 51.2V597.333333A51.2 51.2 0 0 1 810.666667 648.533333zM457.856 595.2a29.866667 29.866667 0 0 0 29.354667-21.077333l57.941333-188.288 34.517333 103.594666a29.866667 29.866667 0 0 0 55.04 3.925334l34.432-68.821334h88.192v-59.733333h-106.666666a29.866667 29.866667 0 0 0-26.709334 16.512l-10.410666 20.821333-41.216-123.562666a29.866667 29.866667 0 0 0-56.874667 0.64l-53.802667 174.890666-16.64-66.688a29.866667 29.866667 0 0 0-29.013333-22.613333h-149.333333v59.733333h125.994666l37.034667 148.053334a29.866667 29.866667 0 0 0 28.16 22.613333zM691.2 25.6a17.066667 17.066667 0 0 0-17.066667-17.066667H349.866667a17.066667 17.066667 0 0 0-17.066667 17.066667v34.133333a17.066667 17.066667 0 0 0 17.066667 17.066667h324.266666a17.066667 17.066667 0 0 0 17.066667-17.066667v-34.133333z"  horiz-adv-x="1024" />
      
      <glyph glyph-name="pool" unicode="&#60451;" d="M461.568 351.146667a154.453333 154.453333 0 1 0 0-308.864 154.453333 154.453333 0 0 0 0 308.906666z m0-68.266667a86.186667 86.186667 0 1 1 0-172.330667 86.186667 86.186667 0 0 1 0 172.373334zM587.562667 728.832l-125.781334-127.744L418.005333 645.546667l-137.813333-139.861334 45.013333-45.653333-20.906666-23.893333c-40.874667-46.506667-64.384-85.632-78.976-129.450667-13.653333-41.088-20.181333-88.064-23.765334-152.32a17.194667 17.194667 0 0 0-17.92-16.256l-34.133333 1.578667a16.981333 16.981333 0 0 0-16.128 17.834666c3.712 66.773333 10.666667 121.088 27.178667 170.709334 15.274667 45.866667 38.229333 86.272 71.978666 128.597333l-6.826666 6.912a59.733333 59.733333 0 0 0 0 83.84L375.466667 699.605333a59.733333 59.733333 0 0 0 85.077333 0l1.237333-1.237333 83.2 84.522667a59.733333 59.733333 0 0 0 85.162667 0l94.122667-95.530667a59.733333 59.733333 0 0 0 0-83.84l-93.781334-95.189333c2.346667-13.056 2.218667-26.197333 1.066667-37.546667a168.106667 168.106667 0 0 0-5.546667-29.226667L913.066667 172.8a59.733333 59.733333 0 0 0 1.706666-85.504l-56.704-57.6a59.733333 59.733333 0 0 0-85.077333 0l-11.050667 11.221333a17.066667 17.066667 0 0 0 0.213334 24.106667l24.32 23.978667a17.066667 17.066667 0 0 0 24.106666-0.170667l4.949334-5.034667 44.501333 45.141334-295.168 276.309333a38.613333 38.613333 0 0 0-8.106667 45.44c2.688 5.333333 5.717333 15.36 6.869334 26.88 1.194667 11.904-0.170667 20.138667-1.706667 23.68a38.698667 38.698667 0 0 0 7.765333 42.666667l100.053334 101.546666-82.176 83.370667z"  horiz-adv-x="1024" />
      
      <glyph glyph-name="Subaccount" unicode="&#60452;" d="M481.024 757.632a176.597333 176.597333 0 1 0 0-353.152 176.597333 176.597333 0 0 0 0 353.152z m0-68.266667a108.330667 108.330667 0 1 1 0-216.618666 108.330667 108.330667 0 0 1 0 216.618666zM490.666667 307.2c-149.930667 0-258.346667-130.645333-258.346667-257.408v-32.725333a17.066667 17.066667 0 0 0-17.066667-17.066667h-34.133333a17.066667 17.066667 0 0 0-17.066667 17.066667v32.725333c0 160.597333 135.253333 325.674667 326.613334 325.674667 72.533333 0 124.330667-11.221333 158.890666-23.210667 13.738667-5.461333 23.466667-9.898667 30.208-13.226667 7.594667-3.754667 10.026667-12.714667 6.144-20.266666l-15.786666-30.634667c-4.565333-8.832-15.658667-11.861333-24.704-7.68a197.205333 197.205333 0 0 1-18.218667 7.296c-26.965333 9.386667-71.168 19.456-136.533333 19.456zM749.056 213.333333c33.152 0 61.44-10.666667 84.906667-32s35.242667-47.104 35.242666-77.269333c0-30.165333-11.733333-55.893333-35.2-77.269333-23.466667-21.333333-51.797333-32-84.906666-32-30.378667 0-70.4 21.76-120.149334 65.28-49.749333-43.52-89.813333-65.28-120.149333-65.28-33.152 0-61.44 10.666667-84.906667 32s-35.2 47.104-35.2 77.226666c0 30.208 11.733333 55.936 35.157334 77.312 23.466667 21.333333 51.797333 32 84.949333 32 30.677333 0 70.698667-21.76 120.149333-65.28 49.706667 43.52 89.770667 65.28 120.106667 65.28z m-240.213333-54.613333c-17.877333 0-32.341333-5.290667-43.434667-15.786667-11.093333-10.581333-16.64-23.509333-16.64-38.869333s5.546667-28.330667 16.64-38.826667c11.093333-10.538667 25.6-15.786667 43.392-15.786666 6.869333 0 14.165333 1.834667 21.802667 5.546666 7.68 3.669333 14.549333 8.234667 20.650666 13.653334a234.666667 234.666667 0 0 1 28.416 29.866666l4.224 5.546667a98.56 98.56 0 0 1-4.266666 5.76 286.122667 286.122667 0 0 1-11.477334 13.226667 170.666667 170.666667 0 0 1-17.109333 16.64 107.818667 107.818667 0 0 1-20.181333 13.013333 48.810667 48.810667 0 0 1-22.058667 5.973333z m240.213333 0a50.346667 50.346667 0 0 1-21.802667-5.546667c-7.68-3.712-14.549333-8.277333-20.650666-13.653333a235.52 235.52 0 0 1-28.416-29.909333l-4.224-5.546667c0.938667-1.450667 2.346667-3.413333 4.266666-5.973333 1.834667-2.56 5.674667-6.997333 11.477334-13.226667 5.802667-6.272 11.52-11.776 17.109333-16.469333 5.632-4.693333 12.373333-9.002667 20.181333-13.013334 7.808-3.968 15.189333-5.973333 22.058667-5.973333 17.834667 0 32.298667 5.290667 43.392 15.786667 11.093333 10.538667 16.64 23.466667 16.64 38.826666 0 15.402667-5.546667 28.330667-16.64 38.869334s-25.557333 15.786667-43.392 15.786666z"  horiz-adv-x="1024" />
      
      <glyph glyph-name="Wallet" unicode="&#60453;" d="M397.610667 691.626667c-16.896-18.730667-28.544-42.24-32.64-68.266667l-117.888-0.042667a51.2 51.2 0 0 1-50.346667-41.898666h168.234667a132.565333 132.565333 0 0 1 32.597333-68.266667H127.573333V572.117333a119.466667 119.466667 0 0 0 119.466667 119.466667z m324.949333-0.042667a59.733333 59.733333 0 0 0 59.733333-59.733333v-118.698667H596.053333a133.888 133.888 0 0 1 32.597334 68.266667h85.418666v41.898666h-85.418666a132.992 132.992 0 0 1-32.64 68.309334zM496.768 705.92a103.594667 103.594667 0 0 1-89.173333-156.245333l-51.413334-30.464a163.328 163.328 0 1 0 281.173334 0l-51.370667 30.464a103.594667 103.594667 0 0 1-89.173333 156.288zM746.453333 581.418667a119.466667 119.466667 0 0 0 119.466667-119.466667v-66.005333h-68.266667v66.005333a51.2 51.2 0 0 1-51.2 51.2H195.882667v-364.928a51.2 51.2 0 0 1 51.2-51.2h499.370666a51.2 51.2 0 0 1 51.2 51.2v98.688h68.266667v-98.688a119.466667 119.466667 0 0 0-119.466667-119.466667H247.082667a119.466667 119.466667 0 0 0-119.466667 119.466667V581.418667h618.837333zM895.872 430.08a38.4 38.4 0 0 0 38.4-38.4v-140.501333a38.4 38.4 0 0 0-38.4-38.4h-116.650667a108.629333 108.629333 0 0 0 0 217.301333z m-29.866667-68.266667h-86.784a40.362667 40.362667 0 0 1 0-80.768h86.784V361.813333z"  horiz-adv-x="1024" />
      
      <glyph glyph-name="Verification" unicode="&#60454;" d="M810.666667 682.666667a85.333333 85.333333 0 0 0 85.333333-85.333334v-426.666666a85.333333 85.333333 0 0 0-85.333333-85.333334H213.333333a85.333333 85.333333 0 0 0-85.333333 85.333334V597.333333a85.333333 85.333333 0 0 0 85.333333 85.333334h597.333334z m0-68.266667H213.333333a17.066667 17.066667 0 0 1-17.066666-17.066667v-426.666666c0-9.386667 7.68-17.066667 17.066666-17.066667h597.333334a17.066667 17.066667 0 0 1 17.066666 17.066667V597.333333a17.066667 17.066667 0 0 1-17.066666 17.066667zM384 546.133333a119.466667 119.466667 0 0 0 88.490667-199.68c10.794667-7.978667 21.205333-18.133333 29.909333-31.146666 14.122667-21.248 22.4-48 22.4-80.64h-68.266667c0 20.693333-5.077333 33.962667-10.922666 42.752a59.562667 59.562667 0 0 1-23.552 20.053333 97.066667 97.066667 0 0 1-35.925334 9.6l-1.28 0.085333H384c-0.426667 0-1.109333 0-2.133333-0.085333a97.066667 97.066667 0 0 1-35.925334-9.6c-9.258667-4.650667-17.493333-11.093333-23.466666-20.053333-5.888-8.789333-10.965333-22.058667-10.965334-42.752H243.2c0 32.64 8.277333 59.392 22.4 80.64 8.704 13.013333 19.114667 23.168 29.866667 31.146666A119.466667 119.466667 0 0 0 384 546.133333z m0-68.266666a51.2 51.2 0 1 1 0-102.4 51.2 51.2 0 0 1 0 102.4zM768 430.933333a17.066667 17.066667 0 0 0-17.066667-17.066666h-157.866666a17.066667 17.066667 0 0 0-17.066667 17.066666v34.133334a17.066667 17.066667 0 0 0 17.066667 17.066666h157.866666c9.386667 0 17.066667-7.637333 17.066667-17.066666v-34.133334zM704 302.933333a17.066667 17.066667 0 0 0-17.066667-17.066666h-93.866666a17.066667 17.066667 0 0 0-17.066667 17.066666v34.133334a17.066667 17.066667 0 0 0 17.066667 17.066666h93.866666a17.066667 17.066667 0 0 0 17.066667-17.066666v-34.133334z"  horiz-adv-x="1024" />
      
      <glyph glyph-name="okb" unicode="&#60455;" d="M618.666667 810.666667a320 320 0 0 0 92.928-626.304 317.781333 317.781333 0 0 1 13.397333 78.08A251.818667 251.818667 0 1 1 390.4 596.906667a317.866667 317.866667 0 0 1-77.994667-13.312A320.085333 320.085333 0 0 0 618.666667 810.666667zM405.333333 597.333333a320 320 0 1 0 0-640 320 320 0 0 0 0 640z m0-68.266666a251.733333 251.733333 0 1 1 0-503.466667 251.733333 251.733333 0 0 1 0 503.466667zM405.333333 384a106.666667 106.666667 0 1 0 0-213.333333 106.666667 106.666667 0 0 0 0 213.333333z m0-68.266667a38.4 38.4 0 1 1 0-76.8 38.4 38.4 0 0 1 0 76.8z"  horiz-adv-x="1024" />
      
      <glyph glyph-name="zichan" unicode="&#60456;" d="M658.176 711.381333c24.96 0 45.141333-20.224 45.141333-45.184V602.026667h50.346667c49.92 0 90.325333-40.448 90.325333-90.325334v-78.08h17.28c19.2 0 34.730667-15.573333 34.730667-34.773333v-138.922667c0-19.2-15.530667-34.688-34.730667-34.688h-17.28v-83.370666a90.282667 90.282667 0 0 0-90.325333-90.282667H239.701333a90.282667 90.282667 0 0 0-90.282666 90.282667V621.056c0 49.92 40.405333 90.325333 90.282666 90.325333h418.474667z m95.488-178.858666H218.88v-390.698667c0-11.52 9.301333-20.821333 20.821333-20.821333h513.962667c11.52 0 20.864 9.301333 20.864 20.821333v83.328h-17.450667a104.192 104.192 0 1 0 0 208.384h17.450667V511.658667a20.821333 20.821333 0 0 1-20.864 20.864z m72.874667-168.448h-69.461334a34.730667 34.730667 0 1 1 0-69.461334h69.461334v69.461334z m-192.682667 277.845333H239.701333a20.821333 20.821333 0 0 1-20.821333-20.864v-19.072h414.976v39.936z"  horiz-adv-x="1024" />
      
      <glyph glyph-name="monijiaoyi" unicode="&#60457;" d="M191.488 585.173333c0 9.429333 7.637333 17.066667 17.066667 17.066667h35.84c9.386667 0 17.066667-7.637333 17.066666-17.066667v-428.8H821.333333c9.429333 0 17.066667-7.68 17.066667-17.066666v-35.84a17.066667 17.066667 0 0 0-17.066667-17.066667H208.554667a17.066667 17.066667 0 0 0-17.066667 17.066667V585.216zM855.04 642.986667a8.533333 8.533333 0 0 0 10.837333-8.192v-137.941334a8.533333 8.533333 0 0 0-13.781333-6.741333l-36.864 28.586667-160.298667-195.968a12.8 12.8 0 0 0-17.92-1.877334l-100.266666 80.213334-122.538667-140.074667a12.8 12.8 0 0 0-18.048-1.194667l-33.408 29.226667a12.8 12.8 0 0 0-1.194667 18.048l158.549334 181.205333a12.8 12.8 0 0 0 17.621333 1.536l98.858667-79.061333 123.306666 150.784-39.082666 30.293333a8.533333 8.533333 0 0 0 0.64 13.952l2.304 1.024z"  horiz-adv-x="1024" />
      
      <glyph glyph-name="rewards" unicode="&#60458;" d="M629.162667 754.56c28.586667-6.741333 55.765333-23.978667 72.32-50.773333 17.066667-27.648 21.034667-62.549333 7.338666-99.712-1.578667-4.266667-3.285333-8.448-5.12-12.416h155.818667c24.576 0 44.544-19.925333 44.544-44.501334v-115.84c0-24.618667-19.968-44.544-44.544-44.544H814.933333v-323.072c0-27.733333-21.034667-50.474667-47.957333-53.205333l-5.504-0.256H262.528a53.461333 53.461333 0 0 0-53.205333 47.957333l-0.256 5.461334v323.114666H164.437333a44.544 44.544 0 0 0-44.544 44.544V547.157333c0 24.576 19.968 44.544 44.544 44.544l155.733334-0.042666a180.138667 180.138667 0 0 0-5.077334 12.373333c-13.653333 37.205333-9.728 72.106667 7.381334 99.754667 16.554667 26.794667 43.776 44.032 72.32 50.773333 28.629333 6.741333 61.013333 3.413333 88.32-14.293333 11.136-7.253333 20.906667-16.554667 28.885333-27.733334 7.893333 11.178667 17.664 20.48 28.8 27.733334 27.306667 17.664 59.690667 21.034667 88.32 14.293333z m-152.832-367.786667H280.32v-305.28h196.010667v305.237334z m267.349333 0h-196.053333v-305.28h196.053333v305.237334z m-267.349333 133.632H191.232v-62.378666h285.098667V520.405333z m71.296 0v-62.378666h285.141333V520.405333h-285.141333zM409.173333 693.845333c-14.634667-3.413333-26.837333-11.946667-33.578666-22.869333-6.229333-10.069333-9.472-24.746667-1.877334-45.354667 4.864-13.184 11.562667-24.32 19.754667-33.962666l82.56 0.042666c0.213333 17.066667-0.341333 33.92-2.474667 50.218667-3.328 25.984-13.994667 39.296-24.32 46.037333a51.84 51.84 0 0 1-40.106666 5.888z m165.674667-5.888c-10.368-6.741333-20.992-20.053333-24.32-46.037333-2.133333-16.298667-2.688-33.152-2.517333-50.218667l82.602666-0.042666c8.149333 9.642667 14.933333 20.778667 19.754667 33.962666 7.594667 20.608 4.352 35.285333-1.877333 45.354667-6.741333 10.922667-18.944 19.413333-33.578667 22.869333-14.506667 3.413333-29.013333 1.28-40.064-5.888z"  horiz-adv-x="1024" />
      
      <glyph glyph-name="jiedai" unicode="&#60459;" d="M746.922667 260.522667l8.490666 5.376c54.613333 30.250667 103.68 22.613333 138.24 0.128 16.426667-10.666667 29.098667-24.405333 37.589334-37.888 4.266667-6.741333 7.850667-13.994667 10.197333-21.333334 2.133333-6.826667 4.138667-16.426667 2.389333-26.666666a34.133333 34.133333 0 0 0-8.789333-17.706667c-32.682667-34.816-89.088-76.032-151.253333-108.544-61.738667-32.341333-134.186667-58.709333-198.826667-58.709333-69.888 0-144.896 17.92-224.64 52.309333a42.666667 42.666667 0 0 0-36.266667-20.181333H193.536a42.666667 42.666667 0 0 0-42.666667 42.666666V302.933333a42.666667 42.666667 0 0 0 42.666667 42.666667h130.432a42.666667 42.666667 0 0 0 40.746667-29.994667c8.874667 2.090667 17.365333 4.693333 26.026666 7.68l32 11.306667c14.634667 4.992 31.146667 9.898667 50.304 13.226667l12.714667 1.92c119.210667 12.458667 199.210667-30.976 261.12-89.173334z m-253.568 21.376a236.544 236.544 0 0 1-43.989334-10.410667l-26.026666-9.130667a352 352 0 0 0-56.661334-16.170666v-126.72c81.92-38.058667 154.496-56.021333 218.24-56.021334 48.512 0 109.354667 20.608 167.253334 50.901334 48.298667 25.301333 91.050667 55.466667 118.912 80.896a59.306667 59.306667 0 0 1-14.677334 13.525333c-13.653333 8.917333-35.328 15.061333-66.986666-2.090667-70.101333-45.354667-136.789333-70.741333-199.082667-70.997333l-0.256 68.266667c27.221333 0.085333 58.069333 7.082667 92.8 22.186666-47.872 39.637333-105.685333 64.426667-189.525333 55.765334z m-194.944-4.565334H219.178667v-181.76h79.232V277.333333z m238.634666 507.733334c63.146667 0 117.76-36.565333 143.786667-89.685334l5.546667 0.085334a160 160 0 1 0-141.568-234.666667l-2.218667 4.352-5.546667-0.085333a160 160 0 1 0 0 320z m149.333334-157.866667a91.733333 91.733333 0 1 1 0-183.466667 91.733333 91.733333 0 0 1 0 183.466667z m-149.333334 89.6a91.733333 91.733333 0 0 1-10.666666-182.869333V535.466667c0 59.221333 32.170667 110.933333 79.957333 138.581333l6.058667 3.328a91.605333 91.605333 0 0 1-75.349334 39.424z"  horiz-adv-x="1024" />
      
      <glyph glyph-name="orderCenter" unicode="&#60460;" d="M597.333333 746.666667c29.056 0 54.741333-14.506667 70.144-36.693334l3.754667-5.973333H746.666667a85.333333 85.333333 0 0 0 85.12-78.933333l0.213333-6.4V85.33333300000004a85.333333 85.333333 0 0 0-78.933333-85.12L746.666667 0h-469.333334a85.333333 85.333333 0 0 0-85.12 78.933333L192 85.33333300000004V618.666667a85.333333 85.333333 0 0 0 78.933333 85.12L277.333333 704h75.434667l-0.512-0.853333A85.333333 85.333333 0 0 0 420.266667 746.410667L426.666667 746.666667h170.666666zM341.333333 635.733333H277.333333a17.066667 17.066667 0 0 1-16.725333-13.653333L260.266667 618.666667V85.33333300000004a17.066667 17.066667 0 0 1 13.653333-16.725333l3.413333-0.341333h469.333334a17.066667 17.066667 0 0 1 16.725333 13.653333L763.733333 85.33333300000004V618.666667a17.066667 17.066667 0 0 1-13.653333 16.725333L746.666667 635.733333H682.666667v-26.538666c0-39.808-30.634667-72.448-69.632-75.605334l-6.229334-0.256H426.666667a85.333333 85.333333 0 0 0-85.12 78.933334L341.333333 618.666667v17.066666z m204.8-311.466666c4.693333 0 8.533333-3.84 8.533334-8.533334v-51.2a8.533333 8.533333 0 0 0-8.533334-8.533333H392.533333a8.533333 8.533333 0 0 0-8.533333 8.533333v51.2c0 4.693333 3.84 8.533333 8.533333 8.533334h153.6z m85.333334 123.733333c4.693333 0 8.533333-3.84 8.533333-8.533333v-51.2a8.533333 8.533333 0 0 0-8.533333-8.533334H392.533333a8.533333 8.533333 0 0 0-8.533333 8.533334v51.2c0 4.693333 3.84 8.533333 8.533333 8.533333h238.933334zM597.333333 678.4h-170.666666a17.066667 17.066667 0 0 1-16.725334-13.653333L409.6 661.333333v-42.666666a17.066667 17.066667 0 0 1 13.653333-16.725334L426.666667 601.6h180.138666a7.594667 7.594667 0 0 1 7.210667 5.205333l0.384 2.389334V661.333333a17.066667 17.066667 0 0 1-13.653333 16.725334L597.333333 678.4z"  horiz-adv-x="1024" />
      
      <glyph glyph-name="qiepian1" unicode="&#60429;" d="M512 896c282.7776 0 512-229.2224 512-512s-229.2224-512-512-512S0 101.2224 0 384 229.2224 896 512 896z m144.6912-545.024H367.3088c3.2256-116.8384 23.6032-224.4096 56.3712-303.872 16.2816-39.424 34.816-69.7344 53.4016-88.832 14.1824-14.592 25.7536-20.2752 34.9184-20.2752 9.1648 0 20.736 5.6832 34.9184 20.2752 18.6368 19.0976 37.12 49.408 53.4016 88.832 32.768 79.4624 53.1456 187.0336 56.3712 303.872z m-355.3792 0H67.1744a446.3104 446.3104 0 0 1 331.0592-398.336 433.5104 433.5104 0 0 0-35.5328 69.3248c-36.1472 87.7056-58.112 203.8784-61.44 329.0112z m655.5136 0h-234.1376c-3.2768-125.1328-25.2416-241.3056-61.44-329.0112-10.752-26.1632-22.6816-49.408-35.4816-69.3248a446.3104 446.3104 0 0 1 331.0592 398.336z m-558.592 464.384l-2.7648-0.7168a446.3104 446.3104 0 0 1-328.2944-397.6192h234.1376c3.2768 125.1328 25.2416 241.3056 61.44 329.0112 10.752 26.1632 22.6816 49.408 35.4816 69.3248zM512 830.0032l-3.584-0.256c-8.4992-1.28-18.944-7.2704-31.3344-20.0192-18.6368-19.0976-37.12-49.408-53.4016-88.832-32.768-79.4624-53.1456-187.0336-56.3712-303.872h289.3824c-3.2256 116.8384-23.6032 224.4096-56.3712 303.872-16.2816 39.424-34.816 69.7344-53.4016 88.832-14.1824 14.592-25.7536 20.2752-34.9184 20.2752z m113.7664-14.6432l0.4096-0.5632c12.6464-19.8144 24.4224-42.8544 35.1232-68.7616 36.1472-87.7056 58.112-203.8784 61.44-329.0112h234.0864a446.3104 446.3104 0 0 1-331.0592 398.336z"  horiz-adv-x="1024" />
      
      <glyph glyph-name="logo_okex_footer" unicode="&#60274;" d="M431.2 482.16a99.776 99.776 0 0 0 40.544-7.824 86.864 86.864 0 0 0 29.872-21.2 92.528 92.528 0 0 0 18.496-31.296 115.456 115.456 0 0 0 0-75.824 92.8 92.8 0 0 0-18.496-31.152 86.752 86.752 0 0 0-29.872-21.2 108.96 108.96 0 0 0-81.088 0 88.144 88.144 0 0 0-30.016 21.2 89.6 89.6 0 0 0-18.496 31.152 117.92 117.92 0 0 0 0 75.824 89.424 89.424 0 0 0 18.496 31.296 88.256 88.256 0 0 0 30.016 21.2 99.744 99.744 0 0 0 40.544 7.824z m468-3.424l40.112-64 40.112 64h43.2l-62.304-94.176 63.44-95.312h-43.472l-40.976 64.576-40.96-64.576h-43.536l63.44 95.312L856 478.736z m-61.728 0v-31.584h-73.968v-45.808h70.56v-31.584h-70.56v-48.928H838.4v-31.584h-114.736V478.736z m-246.096 0v-91.04l65.728 91.04h46.096l-69.696-93.6 74.544-95.872h-49.248l-67.424 93.04v-93.04h-39.824V478.736zM431.2 450.864a54.4 54.4 0 0 1-24.32-5.12 49.264 49.264 0 0 1-17.36-14.08 60.64 60.64 0 0 1-10.32-21.2 104.24 104.24 0 0 1 0-52.912 60.608 60.608 0 0 1 10.384-21.2 49.264 49.264 0 0 1 17.36-14.08 60.336 60.336 0 0 1 48.656 0 49.344 49.344 0 0 1 17.36 14.08 60.656 60.656 0 0 1 10.24 21.184 104.208 104.208 0 0 1 0 52.912 60.688 60.688 0 0 1-10.384 21.2 49.344 49.344 0 0 1-17.36 14.08 54.4 54.4 0 0 1-24.256 5.136zM151.184 369.76a68.544 68.544 0 0 0 16.176-1.92 68.48 68.48 0 0 1 50.24-50.288 68.384 68.384 0 1 0-132.912 0 68.48 68.48 0 0 1 50.288 50.288 68.448 68.448 0 0 0 16.208 1.92z m-82.624 82.624a68.624 68.624 0 0 0 14.976-1.6l1.2-0.272a68.48 68.48 0 0 1 49.504-50.144l0.768-0.192a68.928 68.928 0 0 0 0.288-31.136l-0.272-1.2a68.48 68.48 0 0 1-50.096-49.504l-0.192-0.768a68.384 68.384 0 1 0-16.176 134.832z m165.248 0A68.384 68.384 0 1 0 217.6 317.552a68.48 68.48 0 0 1-50.288 50.288 68.912 68.912 0 0 0 0 32.336A68.48 68.48 0 0 1 217.6 450.448a68.448 68.448 0 0 0 16.208 1.936z m-82.624 82.624A68.432 68.432 0 0 0 217.6 450.448a68.48 68.48 0 0 1-50.288-50.288 68.912 68.912 0 0 0-32.336 0A68.48 68.48 0 0 1 84.8 450.464a68.432 68.432 0 0 0 66.448 84.544z"  horiz-adv-x="1024" />
      
      <glyph glyph-name="Selected" unicode="&#58966;" d="M887.824 682.624l-36.432 31.248a72 72 0 0 1-101.52-7.792L395.296 292.528l-116.368 159.616a72 72 0 0 1-100.592 15.76l-38.784-28.272a72 72 0 0 1-15.76-100.592l198.592-272.416a72 72 0 0 1 64.816-29.28 72 72 0 0 1 63.296 24.624l445.12 519.12a72 72 0 0 1-7.792 101.536z"  horiz-adv-x="1024" />
      
      <glyph glyph-name="Linkedin" unicode="&#59808;" d="M893.3328 800H130.6672C111.6 800 96 784.4 96 765.3328v-762.6656C96-16.4 111.6-32 130.6672-32h762.6656C912.4-32 928-16.4 928 2.6672V765.3328C928 784.4 912.4 800 893.3328 800z m-551.2-708.9328h-123.0656V488h123.0656v-396.9328z m-60.6656 450.6656c-39.8672 0-71.0672 31.2-71.0672 71.0672s31.2 71.0672 71.0672 71.0672c39.8656 0 71.0656-31.2 71.0656-71.0672 0-38.1328-31.2-71.0672-71.0656-71.0672z m523.4656-450.6656h-123.0656v192.4c0 46.8 0 105.7328-64.1344 105.7328-64.1328 0-74.5328-50.2672-74.5328-102.2672v-195.8656h-123.0672V488h117.8672v-53.7328h1.7328c15.6 31.2 57.2 64.1328 116.1344 64.1328 124.8 0 147.3328-81.4672 147.3328-188.9328v-218.4h1.7328z"  horiz-adv-x="1024" />
      
      <glyph glyph-name="biyong11" unicode="&#59809;" d="M411.9904 832h24.848c10.1136 0.12 18.4944-7.8176 18.9216-17.9232v-75.8448h126.0656V813.6144c0.168 10.0816 8.3008 18.2144 18.384 18.384h25.3856c10.1056 0.1056 18.4704-7.824 18.9056-17.92v-75.8176h48.6528c110.6704 0 200.7184-87.6128 200.7184-195.296a193.4 193.4 0 0 0-66.3344-144.704 15.8 15.8 0 0 1 0-23.8928 193.312 193.312 0 0 0 66.32-144.704c0-106.608-88.256-193.5504-197.4032-195.2672h-52.416v-79.9824c-0.1536-10.112-8.3168-18.2688-18.4288-18.4128H600.224c-10.096-0.096-18.448 7.832-18.8752 17.92V34.368h-125.992v-79.9824c-0.1696-10.0992-8.328-18.2384-18.4288-18.384h-25.3856c-10.08-0.072-18.4048 7.8512-18.832 17.9216v80.416H203.7168c-34.0912 0-63.584 23.072-70.8432 55.4912-7.1376 32.0768 9.2896 64.6912 39.7536 78.7136l0.896 0.4176V603.6528A70.4256 70.4256 0 0 0 131.2 667.7328c0 38.5568 31.824 69.872 71.2912 70.4832H393.04V813.616c0.1696 10.1216 8.3648 18.272 18.4864 18.384h0.464z m211.4096-252.3744H415.5888c-46.4576 0-84.208-36.272-84.9856-81.2816v-324.3952a18.384 18.384 0 0 1 11.544-16.9344 19.2944 19.2944 0 0 1 20.16 3.4336l0.3728 0.344 54.0144 51.2656h206.7056c46.488 0 84.2544 36.304 85 81.3424V496.9104c0.016 45.68-38.0352 82.7152-85 82.7152z m-171.3888-152.752c17.2928 0 31.36-13.6352 31.36-30.464 0-16.8304-14.0224-30.464-31.36-30.464-17.3376 0-31.36 13.6336-31.36 30.464 0 16.8288 14.0672 30.464 31.36 30.464z m139.7008 0c17.2928 0 31.36-13.6352 31.36-30.464 0-16.8304-14.0224-30.464-31.36-30.464-17.3376 0-31.36 13.6336-31.36 30.464 0 16.8288 14.0672 30.464 31.3008 30.464h0.0592z"  horiz-adv-x="1024" />
      
      <glyph glyph-name="facebook2" unicode="&#59810;" d="M138.3936 799.9904L883.56 800c15.4528 0 21.056-1.6096 26.704-4.6304a31.4992 31.4992 0 0 0 13.1056-13.104l0.7888-1.5472c2.512-5.2032 3.8416-11.1104 3.8416-25.1584v-743.12l-0.04-3.9776c-0.264-12.4944-1.8432-17.592-4.5904-22.728a31.4992 31.4992 0 0 0-13.104-13.104l-1.5472-0.7888c-5.2032-2.512-11.1104-3.8416-25.1584-3.8416H650.3776V315.1312h114.5216l18.0928 115.0912h-132.6144v57.6272c0 29.5072 9.456 57.696 50.7504 58.6416l2.1648 0.024h86.04v114.8176h-122.2272c-100.7136 0-129.6592-64.9536-130.7776-155.9088l-0.0336-5.6v-69.6016H465.776v-115.0912h70.5168V-32H140.44l-3.9776 0.04c-12.4944 0.264-17.592 1.8432-22.728 4.5904a31.4992 31.4992 0 0 0-13.104 13.104l-0.7888 1.5472c-2.3856 4.944-3.7056 10.5216-3.832 23.112L96 755.56c0 15.4528 1.6096 21.056 4.6304 26.704a31.4992 31.4992 0 0 0 13.104 13.1056l1.5472 0.7888c4.944 2.3856 10.5216 3.7056 23.112 3.832z"  horiz-adv-x="1024" />
      
      <glyph glyph-name="medium2" unicode="&#59833;" d="M960 705.7728l-71.6144-64.7824c-6.1648-4.4368-9.224-11.7312-7.9472-18.952v-476.0768c-1.2704-7.2208 1.7872-14.512 7.9472-18.952l69.864-64.784V48H606.9024v14.2272l72.2528 66.3568c7.1152 6.72 7.1152 8.688 7.1152 18.952V532.3728L485.1552 49.6h-27.2064L223.68 532.3456v-323.5184c-1.9552-13.6064 2.832-27.3072 12.9776-37.1424l94.1248-107.856V49.6H64v14.2272l94.1248 107.856c10.072 9.8512 14.5808 23.6416 12.144 37.1424V582.928c1.0768 10.4064-3.1664 20.6736-11.4224 27.64l-83.6752 95.2048V720h259.808l200.8096-415.9936L712.336 720H960v-14.2272z"  horiz-adv-x="1024" />
      
      <glyph glyph-name="Instagram" unicode="&#59835;" d="M515.3584 800.0016c109.904-0.0096 124.224-0.5056 168.1536-2.496 67.6352-3.0848 127.0016-19.656 174.6672-67.3232 47.6848-47.6832 64.2384-107.0672 67.3232-174.6672C927.5136 511.1424 928 496.9808 928 384v-3.36c-0.0096-109.904-0.5056-124.224-2.496-168.1536-3.0848-67.6352-19.656-127.0016-67.3232-174.6672-47.6832-47.6848-107.0848-64.2384-174.6672-67.3232-44.3728-2.0112-58.5344-2.496-171.5136-2.496h-3.36c-109.904 0.0096-124.224 0.5056-168.1536 2.496-67.6352 3.0848-127.0016 19.656-174.6672 67.3232-47.6848 47.6832-64.2384 107.0672-67.3232 174.6672-2.0112 44.3728-2.496 58.5344-2.496 171.5136v3.36c0.0096 109.904 0.5056 124.224 2.496 168.1536 3.0848 67.6352 19.656 127.0016 67.3232 174.6672 47.6832 47.6848 107.0672 64.2384 174.6672 67.3232 44.3728 2.0112 58.5344 2.496 171.5136 2.496z m6.376-74.9504h-19.472c-102.1536-0.0256-115.808-0.4912-158.3632-2.4256-47.3376-2.1664-91.2768-11.648-125.0768-45.448s-43.28-77.7392-45.448-125.0768c-1.952-42.5552-2.4-56.2096-2.4256-158.3632v-19.472c0.0256-102.1536 0.4912-115.808 2.4256-158.3632 2.1664-47.3376 11.648-91.2768 45.448-125.0768s77.7392-43.28 125.0768-45.448c42.5376-1.952 56.192-2.4 158.3616-2.4256h19.4752c102.168 0.0256 115.824 0.4912 158.3616 2.4256 47.3376 2.1664 91.2768 11.648 125.0768 45.448s43.28 77.7392 45.448 125.0768c1.952 42.5552 2.4 56.2096 2.4256 158.3632v19.472c-0.0256 102.1536-0.4912 115.808-2.4256 158.3632-2.1664 47.3376-11.648 91.2768-45.448 125.0768s-77.7392 43.28-125.0768 45.448c-42.5552 1.952-56.2096 2.4-158.3632 2.4256z m-9.736-127.4336c117.9888 0 213.616-95.6272 213.616-213.616S629.9872 170.3856 512 170.3856 298.3824 266.0304 298.3824 384s95.6272 213.616 213.616 213.616z m0-74.9488c-76.5792 0-138.6672-62.088-138.6672-138.6672s62.088-138.6672 138.6672-138.6672 138.6672 62.088 138.6672 138.6672-62.088 138.6672-138.6672 138.6672z m222.0576 133.3104c27.5696 0 49.92-22.3504 49.92-49.92s-22.3504-49.92-49.92-49.92-49.92 22.3504-49.92 49.92 22.3504 49.92 49.92 49.92z"  horiz-adv-x="1024" />
      
      <glyph glyph-name="reddit1" unicode="&#59836;" d="M976 394.3248c0 61.7392-50.1616 111.9008-111.9008 111.9008-27.0096 0-50.1616-9.648-69.456-25.0816-67.5248 42.4448-154.344 67.5264-246.9504 73.3136l48.232 152.416 133.1232-30.8688c3.8592-48.232 44.3744-86.8192 92.608-86.8192 52.0896 0 92.6064 42.4448 92.6064 92.608 0 52.0912-42.4448 92.6064-92.608 92.6064-36.656 0-67.5248-21.2224-82.96-50.1616l-154.3456 36.656c-13.504 3.8592-25.08-3.8576-30.8688-17.3632l-59.808-189.072c-100.3248-1.9296-192.9312-28.9408-266.2464-73.3152-19.2928 15.4352-42.4448 23.152-67.5248 23.152C98.16 504.296 48 454.1344 48 392.3952c0-38.5856 19.2928-71.384 48.2336-90.6768-1.9296-9.648-1.9296-17.3648-1.9296-27.0112 0-77.1728 44.3744-148.5568 125.4048-200.648 77.1728-50.1616 179.4256-79.1024 289.3968-79.1024 108.0416 0 212.224 27.0112 289.3968 79.1024 81.032 52.0912 125.4064 123.4752 125.4064 200.648 0 7.7184 0 15.4352-1.9296 25.0816C954.7776 321.0112 976 355.7392 976 394.3248z m-154.3456 331.8416c23.152 0 42.4448-19.2928 42.4448-42.4448 0-23.152-19.2928-42.4448-42.4448-42.4448-23.152 0-42.4448 19.2944-42.4448 42.4448 0 23.152 19.2928 42.4448 42.4448 42.4448zM312.3168 326.8c0 34.728 28.9392 63.6688 63.6672 63.6688 34.7264 0 61.7376-28.9408 61.7376-63.6688 0-34.7264-28.9392-61.7376-61.7376-61.7376-34.728-1.9296-63.6672 27.0112-63.6672 61.7376z m353.064-185.2128c-32.8-32.8-81.032-48.2336-152.416-48.2336-69.456 0-119.6176 15.4352-152.416 48.2336-9.648 9.6464-9.648 25.08 0 36.656 9.648 9.648 25.0816 9.648 36.656 0 23.152-23.152 59.8096-32.7984 115.76-32.7984 55.9504 0 94.536 11.576 115.76 32.8 9.6448 9.6448 25.08 9.6448 36.656 0 9.6464-9.648 9.6464-27.0112 0-36.6576z m-15.4352 121.5456c-34.728 0-63.6672 28.9408-63.6672 61.7392 0 32.7984 28.9392 63.6672 63.6672 63.6672 34.728 0 61.7376-28.9408 61.7376-63.6672 0-34.728-27.0096-61.7392-61.7376-61.7392z"  horiz-adv-x="1024" />
      
      <glyph glyph-name="youtube1" unicode="&#59837;" d="M950.6672 566.1824s-9.3344 62.3008-35.4672 90.6192c-33.6 35.872-72.8 35.872-89.6 37.76C700.5328 704 512 704 512 704s-188.5328 0-313.6-9.44c-16.8-1.888-56-1.888-89.6-37.7584-26.1328-28.3184-35.4672-90.6192-35.4672-90.6192S64 492.5552 64 418.928v-67.9648c0-73.6288 9.3328-147.256 9.3328-147.256S82.6672 141.4048 108.8 113.0848c33.6-35.8688 78.4-35.8688 98.9328-39.6448C278.6672 65.888 512 64 512 64s188.5328 0 313.6 9.44c16.8 1.888 56 1.888 89.6 37.7584 26.1328 28.3184 35.4672 90.6192 35.4672 90.6192S960 275.4448 960 349.072V417.04c0 75.5168-9.3328 149.144-9.3328 149.144zM409.6 230.912v276.48l266.24-139.264L409.6 230.912z"  horiz-adv-x="1024" />
      
      <glyph glyph-name="wechat2" unicode="&#59838;" d="M688.568 496.7168C820.056 496.7168 960 409.376 960 290.096c0-72.2592-31.4352-144.816-97.5152-190.848l15.8672-68.88c1.4752-6.384-5.5072-11.3312-11.032-7.8208l-69.944 44.3888c-31.472-10.4528-67.6672-16.352-108.808-16.352-185.976 0-264.8608 134.12-264.8608 223.0672 0 88.76 78.904 223.0656 264.8608 223.0656zM388.968 745.6c151.928 0 286.44-89.5808 313.5072-219.128a344.696 344.696 0 0 1-13.888 0.2992c-203.4112 0-294.9152-148.0272-294.9152-253.12 0-18.5744 2.8752-38.472 8.6992-58.6704-8.12 0.3744-91.504 4.368-130.7984 16.8752L182.72 181.512c-8.8848-5.04-19.4688 3.1168-16.856 12.992l19.768 74.928S64 348.336 64 484.5088C64 620.6832 204.8768 745.6 388.968 745.6z m214.592-361.4432c-19.712 0-35.6912-15.9776-35.6912-35.6896s15.9792-35.6912 35.6912-35.6912c19.712 0 35.6912 15.9792 35.6912 35.6912 0 19.712-15.9792 35.6896-35.6912 35.6896z m178.4528 0c-19.712 0-35.6896-15.9776-35.6896-35.6896s15.9776-35.6912 35.6896-35.6912c19.6944 0 35.6912 15.9792 35.6912 35.6912 0 19.712-15.9792 35.6896-35.6912 35.6896zM267.8032 609.4272c-22.3072 0-40.3952-18.088-40.3952-40.3952s18.088-40.3952 40.3952-40.3952c22.3056 0 40.3936 18.088 40.3936 40.3952s-18.088 40.3952-40.3936 40.3952z m234.808 0c-22.3072 0-40.3952-18.088-40.3952-40.3952s18.088-40.3952 40.3952-40.3952c22.3056 0 40.3936 18.088 40.3936 40.3952s-18.088 40.3952-40.3936 40.3952z"  horiz-adv-x="1024" />
      
      <glyph glyph-name="twitter2" unicode="&#59839;" d="M960 675.2704c-33.6-15.632-69.0672-25.4032-106.4-31.264 37.3328 23.448 67.2 60.5728 80.2672 105.5152-35.4672-21.4944-74.6672-37.1264-117.6-46.896-33.6 37.1264-82.1344 60.5744-134.4 60.5744-100.8 0-182.9344-85.976-182.9344-191.4928 0-15.632 1.8672-29.3104 5.6-42.9872-151.2 7.816-287.4656 84.0224-378.9328 201.2624-14.9328-29.312-24.2672-60.576-24.2672-95.7472 0-66.4352 31.7344-125.056 82.1344-160.2272-29.8672 1.952-57.8672 9.7696-84 23.448v-1.9552c0-93.792 63.4656-171.952 147.4656-189.5376-14.9328-3.9088-31.7328-5.8624-48.5328-5.8624-11.2 0-24.2672 1.9536-35.4672 3.9088C187.2 227.8016 254.4 171.136 334.6672 171.136 271.2 120.3328 192.8 89.0688 106.9328 89.0688c-14.9328 0-29.8656 0-42.9328 1.9536 82.1328-54.712 177.3328-85.976 281.8672-85.976 337.8656 0 522.6656 293.1008 522.6656 547.12v25.4032c35.4672 25.4016 67.2 58.6208 91.4672 97.7008z"  horiz-adv-x="1024" />
      
      <glyph glyph-name="telegram1" unicode="&#59840;" d="M958.2464 747.3024c-1.456 6.92-6.44 12.4928-13.032 14.576a65.328 65.328 0 0 1-35.256-2.56S128.1312 464.2512 80.0384 437.6c-11.1424-6.1776-12.896-10.9168-14.4928-15.6352-7.792-22.832 16.4-32.9088 16.4-32.9088l202.344-67.68 96.5936-269.5344s10.5968-26.1312 25.4784-26.1312c6.3504 0 20.7248 6.8576 41.2752 27.9904 43.6128 44.7664 85.472 81.8752 106.3712 99.968 69.5776-49.3232 144.4528-103.8464 176.768-132.3776 10.9312-10.8704 25.6928-16.7232 40.9056-16.2144 30.6784 1.1792 39.2288 35.7488 39.2288 35.7488s143.0704 591.0336 147.8416 670.208c0.4688 7.7584 1.1104 12.696 1.1888 17.9952a68.6672 68.6672 0 0 1-1.696 18.2736zM318.6304 337.632c101.0928 65.4784 441.4032 285.4704 463.0816 293.648 3.896 1.1584 6.6032-0.16 5.8432-2.84-9.6224-34.688-370.5584-364.1248-371.8832-365.224a8.4864 8.4864 0 0 1-2.5904-6.2784l-14.0432-148.0544-80.408 228.7488z"  horiz-adv-x="1024" />
      
      <glyph glyph-name="PressRoom" unicode="&#59841;" d="M928 785.6v-678.1776c0-69.1472-55.432-125.3472-124.2832-126.5872l-2.3248-0.0208H222.608c-66.5936 0-121.1792 51.4144-126.2272 116.7136L96 107.4224V460.0352h168.8112V785.6H928zM180.4064 375.696v-268.2736c0-21.1888 15.616-38.7312 35.9664-41.744l6.2352-0.4592c22.7792 0 41.3424 18.0464 42.176 40.6208l0.0272 1.5824v268.208l-84.4048 0.064z m599.8832-149.2544H412.5216v-84.4048h367.768v84.4048z m0 168.8128H412.5216v-84.4064h367.768v84.4064z m0 249.0352H412.5216v-164.6304h367.768V644.2896z"  horiz-adv-x="1024" />
      
      <glyph glyph-name="weibo1" unicode="&#59842;" d="M197.5968 511.2128c112.8784 112.84 244.4784 164.2288 293.9632 114.7072 21.84-21.8224 23.9488-59.584 9.912-104.7024-7.3168-22.736 21.3168-10.1536 21.3168-10.192 91.2432 38.192 170.8192 40.432 199.9024-1.12 15.512-22.1376 14.0176-53.2-0.28-89.208-6.608-16.576 2.0528-19.152 14.672-22.9216 51.3888-15.9424 108.6016-54.488 108.6016-122.416 0-112.392-162.1008-253.9792-405.776-253.9792C254.008 21.3808 64 111.4656 64 259.6416c0 77.4672 49.0752 167.048 133.5968 251.5712z m493.9584-233.8c-9.6144 97.3472-137.6672 164.416-286.0112 149.7248C257.2368 412.4848 144.752 321.6528 154.384 224.288c9.6512-97.4032 137.6848-164.416 286.0112-149.8 148.344 14.672 260.7728 105.504 251.16 202.9248z m-417.368-4.2368c30.6496 62.216 110.4496 97.384 181.0288 79.016 73.0432-18.872 110.3392-87.7904 80.472-154.728-30.2768-68.4512-117.3392-104.9632-191.2208-81.144-71.3072 23.016-101.5104 93.4256-70.28 156.856z m110.5808-23.5584c-22.9968 9.632-52.6768-0.28-66.8448-22.4928-14.3552-22.3072-7.6352-48.9072 15.176-59.2848 23.1456-10.5472 53.872-0.5232 68.208 22.3616 14.112 23.128 6.6816 49.5424-16.5392 59.416z m56.616 23.4832c-8.8112 3.4912-19.8432-0.7472-25.0128-9.408-5.0224-8.7168-2.2592-18.648 6.5888-22.2688 8.96-3.696 20.44 0.56 25.6288 9.4448 4.9472 8.9232 1.736 18.9648-7.2048 22.232z m231.728 468.888c80.136 17.0432 166.936-7.8208 225.7728-73.0608 58.8944-65.1664 74.7424-154.0192 49.616-232.008v-0.1312c-5.8416-17.9952-25.1808-27.8512-43.1936-22.0272-18.0704 5.824-27.944 25.1264-22.1024 43.1952v0.0192c17.9024 55.4016 6.552 118.6256-35.2416 164.9568-41.8704 46.3312-103.544 64.0448-160.5344 51.9488-18.536-3.9568-36.7728 7.8784-40.712 26.3952-3.976 18.5168 7.8592 36.7552 26.376 40.712z m25.4432-119.0752c39.0496 8.288 81.3296-3.7888 109.9648-35.5408 28.7088-31.7712 36.3632-75.0208 24.0992-113.0448-5.0032-15.512-21.6544-23.9872-37.184-19.0224-15.5312 5.04-24.0064 21.7104-19.0032 37.2032h-0.0192c6.0304 18.5728 2.2592 39.7408-11.76 55.2912-14 15.512-34.7008 21.392-53.7776 17.3408v0.0368c-15.904-3.4528-31.6032 6.776-35.0192 22.6624-3.4352 15.9776 6.7392 31.6768 22.6992 35.0736z"  horiz-adv-x="1024" />
      
      <glyph glyph-name="blog1" unicode="&#59843;" d="M211.1984 796.2944c24.736 5.0304 50.3616 3.504 75.504 3.44l5.0208 0.008c164.9136-0.1776 329.8272 0.224 494.7408-0.1776 74.24-1.648 139.8352-68.304 140.8784-142.448l0.0112-2.32c0.8464-180.2032 0.6528-360.4656 0.5344-540.7744 0-77.0432-68.6992-146.1632-145.9552-145.984-181.464 0.1184-362.9136-0.224-544.3776 0.1184-75.3856 2.304-141.3648 70.2208-141.544 145.6736L96 315.1936c0.0256 100.6832 0.1536 201.3696 0.6352 302.0704l-0.1824 11.7344c-0.1856 15.6592-0.0192 31.3616 1.9056 46.8928 9.5984 57.808 55.9232 106.8912 112.84 120.4032z m562.512-55.4304H250.576c-52.8832 0-95.8896-42.2912-97.0432-94.8992l-0.0224-2.168v-296.7712c0-52.7856 42.1408-95.7504 94.6496-97.0368l2.1632-0.0288 170.9232-0.4464a55.4672 55.4672 0 0 0 49.008-29.768l2.6096-4.9344c17.6032-32.9232 30.6128-49.384 39.0272-49.384 8.8448 0 22.888 18.232 42.128 54.6944a55.4672 55.4672 0 0 0 46.9632 29.5408l1.9824 0.04 170.776 0.344c52.7936 0.1072 95.6752 42.344 96.848 94.8624l0.024 2.1632 0.1248 296.7248 0.0416 0.0416c0 52.8832-42.2912 95.8896-94.8992 97.0032l-2.168 0.0224zM682.88 529.1168c20.7264 14.688 53.04 14.688 70.08-5.9456l-0.0608 4.96c-0.016 2.5136-0.0192 5.1712-0.0272 6.888 14.3216 0.128 28.6544 0.128 42.9968 0l0.0384-81.0128c0-13.5024-0.0096-27.0048-0.0384-40.5056-0.1792-21.8816-7.8752-45.3968-26.0896-58.776-15.808-11.9952-36.6368-13.3328-55.744-12.4704 0.0896 13.2144 0 26.4144 0 39.6432l6.536 0.24c8.3136 0.3584 16.928 1.3248 23.1776 7.1936 8.7808 8.5312 8.7808 21.5968 9.6432 32.984-21.424-20.3504-57.4976-20.9152-79.04-0.5056-29.936 28.3024-25.392 83.8816 8.528 107.3072z m-148.48 6.7344c26.816 7.5808 58.6096 3.4624 79.3056-16.352 27.68-25.864 25.6288-76.5376-5.1248-99.2208-35.5648-26.9392-98.2288-18.6688-116.8176 24.6592l-0.792 1.9344c-14.872 35.2576 5.6464 79.8528 43.4272 88.9792z m-294.2896 57.3472c14.2176-0.416 28.392-0.2384 42.5792-0.416-0.5488-22.8624 0.2528-45.8128-0.5488-68.704 20.3712 20.4832 55.9712 20.08 76.768 0.5568l1.336-1.3008c28.4208-27.3504 27.44-79.4208-2.9712-104.8992-20.8304-18.0608-56.8592-19.1008-74.8512 3.568l0.2672-12.976c-14.4256-0.1344-28.912-0.2832-43.352 0.296 0.64 61.2864-0.7136 122.6336 0.7728 183.8752z m154.304 4.208c13.12-0.4032 26.4768-3.272 37.0096-11.3584 18.72-13.6896 26.5952-37.9488 26.1488-60.4544-0.1632-38.8848 0.0896-77.7856-0.0896-116.6128-14.232-0.088-28.4416-0.088-42.624 0-0.64 38.872 0.816 77.8176-0.8176 116.6576 0.0896 12.8288-6.6864 25.672-19.6256 29.4176-0.2528 14.1072-0.0752 28.2128 0 42.3488z m192.5776-125.8304c2.3184 18.9088-18.6752 34.1152-36.1024 27.44-22.5376-6.2576-25.5088-41.576-4.7088-51.8768 17.264-10.3904 43.0848 3.6272 40.8112 24.4368z m-251.024 0.208c1.9008 19.712-20.384 34.8432-38.2128 26.504-21.5872-7.656-22.6128-42.5728-1.6048-51.744 17.4272-9.2896 41.5104 4.92 39.8176 25.24z m418.4336-0.0144c2.3328 19.6656-19.952 36.136-37.944 27.6928-20.8128-7.1792-23.12-39.8752-4.4896-50.624l1.1904-0.6448c17.2496-9.736 42.1952 2.8688 41.2432 23.576z"  horiz-adv-x="1024" />
      
      <glyph glyph-name="line1" unicode="&#59844;" d="M512 832c247.424 0 448-200.576 448-448S759.424-64 512-64 64 136.576 64 384 264.576 832 512 832z m0-161.8576c-173 0-313.864-114.3088-313.864-254.7872 0-125.8528 111.6144-231.3072 262.4848-251.3216 36.7536-7.8912 32.52-21.36 24.2464-70.816-1.3488-7.8912-6.352-30.9824 27.1328-16.9344 33.4848 14.048 180.6976 106.416 246.704 182.2384 45.4144 50.032 67.16 100.6432 67.16 156.8336 0 140.48-140.864 254.7872-313.864 254.7872z m87.216-192.808v-136.8224c0-3.464-2.6928-6.1584-6.1568-6.1584H571.12c-2.1168 0-4.0416 1.1552-5.0032 2.5024l-62.7344 84.672V340.32c0-3.464-2.696-6.1584-6.1584-6.1584h-21.936c-3.4656 0-6.16 2.6944-6.16 6.1584v136.8224c0 3.464 2.6944 6.1568 6.1568 6.1568h21.7456c1.9248 0 4.0432-0.9616 5.0048-2.6928l62.736-84.672v81.208c0 3.464 2.6928 6.1568 6.1552 6.1568h21.936c3.4672 0.192 6.352-2.6928 6.352-5.9648z m-179.736 6.1584h21.9376c3.3632 0 6-2.72 6.152-5.872l0.008-0.288v-136.8208c0-3.36-2.5392-5.9968-5.8544-6.1504l-0.304-0.008h-21.936c-3.3632 0-6 2.5392-6.1536 5.856l-0.0064 0.304v136.8208c0 3.3632 2.5376 6 5.8544 6.152l0.304 0.0064h21.936-21.936z m207.256 0h87.9424c3.1728 0 5.8016-2.7152 6.1344-5.8624l0.024-0.296v-21.9376c0-3.36-2.5392-5.9968-5.8544-6.1504l-0.304-0.008H654.832v-23.0912h59.848c3.3632 0 6-2.5376 6.152-5.856l0.0064-0.3024v-22.1296c0-3.3632-2.5392-6-5.8544-6.152l-0.304-0.008H654.832v-23.0912h59.848c3.3632 0 6-2.5376 6.152-5.8528l0.0064-0.304v-21.9376c0-3.3632-2.5392-6-5.8544-6.152l-0.304-0.008H626.736c-3.3632 0-6 2.72-6.152 5.872l-0.0064 0.288v136.8208c0 3.3632 2.72 6 5.872 6.152l0.2864 0.0064h87.9424-87.9424z m-326.1808 0h21.9376c3.3616 0 6-2.5376 6.1504-5.8528l0.008-0.304V368.8h59.848c3.1728 0 5.8016-2.7152 5.9584-5.864l0.008-0.296v-21.936c0-3.3632-2.5392-6-5.856-6.152l-0.3024-0.0064h-87.944c-1.7328 0-3.0784 0.7696-4.2336 1.7328-1.072 1.072-1.648 2.3088-1.7232 3.8672l-0.008 0.3648v136.8224c0 3.3632 2.5376 6 5.8528 6.152l0.304 0.0064h21.9376-21.936z"  horiz-adv-x="1024" />
      
      <glyph glyph-name="QQ" unicode="&#59845;" d="M164.7808 321.0688c-29.36-71.9264-34.216-140.4944-10.5664-153.2768 16.32-8.84 41.8176 11.3824 65.7936 48.1824 9.52-40.296 32.952-76.456 66.4736-105.696-35.0992-13.4624-58.096-35.44-58.096-60.2848 0-40.9344 62.1072-73.9936 138.712-73.9936 69.112 0 126.3648 26.8448 136.9328 62.2032h16.4544C531.256 2.8448 588.3872-24 657.5792-24c76.688 0 138.7136 33.0464 138.7136 73.9936 0 24.8464-22.9552 46.672-58.1376 60.2864 33.4 29.224 57.008 65.3856 66.448 105.6944 23.9616-36.8 49.3104-57.024 65.752-48.1824 23.7568 12.7424 19.04 81.3088-10.608 153.2368-23.12 56.3136-54.5328 97.9152-78.4688 107.2032 0.3264 3.4272 0.6128 7.208 0.6128 10.88a111.5152 111.5152 0 0 1-15.9936 58.3808c0.1696 1.28 0.2384 2.5712 0.2048 3.8624a62.3808 62.3808 0 0 1-6.2688 27.4976C753.7536 675.44 661.5648 792 512.3248 792c-149.2384 0-241.592-116.56-247.6288-263.1472a64.5824 64.5824 0 0 1-6.2704-27.632c-0.0256-1.2912 0.0288-2.5808 0.1632-3.864a112.6016 112.6016 0 0 1-15.7888-58.3408c0-3.6576 0.2048-7.3296 0.448-10.88-23.8512-9.2736-55.3472-50.7664-78.4672-107.0672z"  horiz-adv-x="1024" />
      
      <glyph glyph-name="home_download" unicode="&#59371;" d="M844.8 870.4c57.4976 0 104.5504-44.544 108.544-101.0176l0.256-7.7824v-768c0-57.4976-44.544-104.5504-101.0176-108.544l-7.7824-0.256h-665.6a108.8 108.8 0 0 0-108.544 101.0176l-0.256 7.7824v768c0 57.4976 44.544 104.5504 101.0176 108.544L179.2 870.4h665.6z m0-64h-665.6a44.8 44.8 0 0 1-44.4416-39.168l-0.3584-5.632v-768c0-22.8352 17.1008-41.6768 39.168-44.4416l5.632-0.3584h665.6a44.8 44.8 0 0 1 44.4416 39.168l0.3584 5.632v768a44.8 44.8 0 0 1-39.168 44.4416l-5.632 0.3584z m-143.36-684.8a15.36 15.36 0 0 0 15.36-15.36v-33.28a15.36 15.36 0 0 0-15.36-15.36H322.56a15.36 15.36 0 0 0-15.36 15.36v33.28a15.36 15.36 0 0 0 15.36 15.36h378.88z m-176.5376 614.4a25.6 25.6 0 0 0 25.6-25.6l-0.0512-382.0544 105.0624 105.1136a25.6512 25.6512 0 0 0 32.768 2.9184l3.5328-3.0208 17.7152-17.92a25.6 25.6 0 0 0 2.9184-32.512l-2.9696-3.584-180.736-181.4016a25.7024 25.7024 0 0 0-32.9216-2.8672l-3.5328 3.0208-177.7664 181.248a25.6 25.6 0 0 0-3.1232 32l3.2256 3.9424 17.664 17.92a25.7536 25.7536 0 0 0 33.024 2.8672l3.4816-2.9696 104.8576-107.264V710.4a25.6 25.6 0 0 0 25.6 25.6h25.6z"  horiz-adv-x="1024" />
      
      <glyph glyph-name="home_notice" unicode="&#59372;" d="M512 880.64c207.7696 0 349.184-149.6576 349.184-335.6672 0-122.0096 15.3088-170.1376 62.8736-246.7328l8.8576-14.336c16.9984-27.8528 26.368-45.824 35.9936-70.5536 27.8528-71.7824-14.4384-129.1264-105.6256-162.816-40.96-15.2064-93.184-26.4704-155.136-33.8432-25.344-77.5168-104.4992-131.8912-196.1472-131.8912-91.4432 0-170.496 54.1696-196.096 131.3792-195.5328 22.5792-289.792 84.992-257.6896 194.56 9.728 33.024 20.5824 55.296 43.008 93.3888l11.264 19.3536c36.1984 64.3072 49.408 114.5856 49.408 221.4912C161.8944 730.7776 304.128 880.64 512 880.64z m124.16-870.4512l-10.9568-0.7168c-35.4304-2.048-73.216-3.072-113.2032-3.072a2029.568 2029.568 0 0 0-124.0064 3.5328C412.672-26.112 458.3936-51.2 512-51.2c53.76 0 99.6352 25.2928 124.16 61.3888zM512 816.64c-171.776 0-286.1056-120.4736-286.1056-271.6672l-0.1024-18.2272c-1.7408-112.64-20.224-171.3152-64.4096-246.528l-11.264-19.3024c-15.7184-27.2896-23.5008-44.3904-30.464-68.1984-20.736-70.8096 97.2288-118.0672 356.1472-122.0608l36.1984-0.256c144.9984 0 258.56 14.08 329.1136 40.1408 61.7472 22.8352 80.384 48.0768 68.096 79.616a322.4576 322.4576 0 0 1-25.856 52.0192l-20.48 33.4336c-48.384 80.4352-65.6896 140.5952-65.6896 269.3632 0 151.4496-113.6128 271.6672-285.184 271.6672z"  horiz-adv-x="1024" />
      
      <glyph glyph-name="home_support1" unicode="&#59374;" d="M943.36 46.08c0-82.432-64.512-149.9136-145.7664-154.624l-9.1136-0.256h-183.04a1.28 1.28 0 0 0-1.28 1.28v61.44c0 0.7168 0.5632 1.28 1.28 1.28H788.48c47.6672 0 86.784 36.7104 90.624 83.456l0.256 7.424v14.2336c-17.8176-9.8816-38.2976-15.5136-60.16-15.5136h-92.16a32 32 0 0 0-32 32v307.2c0 17.664 14.336 32 32 32h152.32V445.44a367.36 367.36 0 0 1-734.5152 12.3904l-0.2048-12.3904v-29.44H296.96c16.0768 0 29.3888-11.8272 31.6416-27.2896l0.3584-4.7104v-307.2c0-17.664-14.336-32-32-32H204.8A124.16 124.16 0 0 0 80.64 168.96V445.44a431.36 431.36 0 0 0 862.5152 12.9536l0.2048-12.9536v-399.36z m-678.4 305.92h-120.32V168.96c0-31.0272 23.4496-56.5248 53.6064-59.8016l6.5536-0.3584h60.16v243.2z m614.3488 0h-120.32v-243.2H819.2c31.0272 0 56.5248 23.4496 59.8016 53.6064l0.3584 6.5536-0.0512 183.04z"  horiz-adv-x="1024" />
      
      <glyph glyph-name="home_user" unicode="&#59377;" d="M311.6544 289.0752l7.2192-2.9696c54.7328-24.2176 119.0912-36.352 193.1264-36.352 67.7376 0 127.3344 10.1376 178.8928 30.464l13.824 5.7856c69.7856 30.8224 150.4256-2.7136 180.224-74.8544l2.3552-6.144c7.68-21.248 14.08-42.24 19.2512-62.976l4.7616-20.736c19.7632-93.7984-37.6832-186.4192-128.3072-206.848-11.776-2.7136-23.7568-4.0448-35.7888-4.0448H276.736c-92.7232 0-167.936 77.824-167.936 173.824 0 8.2944 0.5632 16.5888 1.7408 24.832l2.0992 12.2368c4.4032 20.7872 9.8304 41.472 16.384 62.1056l6.8096 20.5824c25.856 73.728 104.5504 111.872 175.8208 85.0944zM200.704 180.8384l-6.5024-19.456c-5.7344-18.3808-10.5984-36.7616-14.0288-52.736l-1.7408-9.728c-0.6656-4.864-1.024-9.728-1.024-14.6944 0-56.7808 44.4928-102.8096 99.328-102.8096h470.4768c7.168 0 14.2336 0.8192 21.1968 2.4064 53.5552 12.0832 87.552 66.8672 76.1344 121.0368l-4.4544 19.4048c-4.608 18.3296-10.24 36.9664-16.5376 54.3744l-1.7408 4.608a68.096 68.096 0 0 1-91.392 36.864l-15.104-6.2976c-59.8016-23.552-127.6416-35.072-203.3152-35.072-75.9808 0-144.0256 11.6224-203.9808 35.328l-19.7632 8.192a67.7888 67.7888 0 0 1-87.552-41.472zM512 857.6a260.7104 260.7104 0 0 0 260.9152-260.5056A260.7104 260.7104 0 0 0 512 336.64a260.7104 260.7104 0 0 0-260.9152 260.5056A260.7104 260.7104 0 0 0 512 857.6z m0-66.304a194.3552 194.3552 0 0 1-194.5088-194.2016C317.4912 489.9328 404.5824 402.944 512 402.944a194.3552 194.3552 0 0 1 194.5088 194.2016c0 107.2128-87.0912 194.1504-194.5088 194.1504z"  horiz-adv-x="1024" />
      
      <glyph glyph-name="facebook" unicode="&#58882;" d="M406.4-112V340.336h-152V516.8h152v130.032q0 110.912 62 172.048T633.6 880q87.664 0 136-7.152v-157.424h-93.616q-51.2 0-69.168-21.472t-17.888-64.4V516.8h174.72l-23.264-176.48h-151.44V-112z"  horiz-adv-x="1024" />
      
      <glyph glyph-name="weibo" unicode="&#58884;" d="M401.296 46.4c167.824 7.632 303.616 112.64 303.616 224.56s-135.792 181.024-303.616 173.28-303.232-97.6-303.232-209.6S233.6 38.624 401.296 46.4zM758.4 410.032c40-8 165.584-66.16 96.448-213.28C785.68 49.888 545.6-29.584 342.4-3.984 182.64 16.144 2.432 92.8 0.496 251.92 0 292.8 6.4 353.6 74.512 453.792c51.056 75.12 143.088 174.208 265.6 220.24 145.696 54.736 165.472-44.432 159.728-82.352-5.632-37.248-19.856-69.264 31.888-48.912 46.192 18.176 150.4 60.016 198.4 7.376 37.808-41.344 22.4-87.36 7.696-110.944C734.4 433.6 723.2 420.8 758.4 410.032zM424.752 233.424c10.352 8.304 15.28 23.104 8.816 32.112s-18.576 11.952-31.12 2.72c-10.752-7.92-13.104-22.88-7.12-32.144 6.272-9.696 20.672-9.696 29.424-2.688z m-99.424-84.8c31.36 3.632 56.88 27.824 56.896 54.048s-23.52 47.328-59.712 43.728c-31.52-3.2-54.048-30.736-54.048-56.96s25.36-44.384 56.864-40.736z m42.528 221.744c169.6 12.192 199.056-141.712 147.696-208s-128.336-78.4-195.536-65.6c-52.448 9.984-102.4 43.2-102.4 110.4-0.016 58.048 38.384 155.248 150.24 163.28zM840.512 478.4a27.744 27.744 0 0 1 27.088 23.168c2.8 16 14 79.216-27.6 123.2-31.872 33.728-75.2 38.4-123.792 33.04-15.216-1.6-27.568-12.4-27.568-27.824s15.376-29.28 27.568-27.568c45.392 6.4 69.792-0.32 82.192-16 24-30.4 16.464-59.792 14.288-80.416-1.488-13.984 12.448-27.6 27.824-27.6zM820.416 801.696c-59.584 13.968-122.912 4.208-142.016-2.496-16-5.6-30.08-21.712-30.08-40.208a39.44 39.44 0 0 1 39.68-39.776c16 0 124.368 22.704 198.4-43.2 80-71.216 46.544-189.056 43.2-208-4.8-27.2 6.4-37.616 24-44.016 16.496-6 43.2-3.2 52.8 24.816a318.496 318.496 0 0 1 17.6 92.8c5.952 152-96.944 235.2-203.584 260.096"  horiz-adv-x="1024" />
      
      <glyph glyph-name="twitter" unicode="&#58885;" d="M1000 670.768a400.4 400.4 0 0 0-115.024-31.536 200.768 200.768 0 0 1 88 110.816 400.56 400.56 0 0 0-127.168-48.592 200.432 200.432 0 0 1-341.12-182.704A568.448 568.448 0 0 0 91.952 728 200.512 200.512 0 0 1 153.92 460.624a199.392 199.392 0 0 0-90.688 25.04v-2.528a200.384 200.384 0 0 1 160.592-196.368 199.808 199.808 0 0 0-90.416-3.424 200.4 200.4 0 0 1 187.04-139.104 401.6 401.6 0 0 0-248.688-85.728A404.528 404.528 0 0 0 24 61.312a566.8 566.8 0 0 1 306.96-89.984c368.304 0 569.712 305.184 569.712 569.84q0 13.04-0.56 25.936A406.4 406.4 0 0 1 1000 670.768z m0 0"  horiz-adv-x="1024" />
      
      <glyph glyph-name="medium" unicode="&#59017;" d="M121.429333 624.64a39.594667 39.594667 0 0 1-12.928 33.450667l-95.573333 115.2v17.194666H309.76l229.461333-503.253333 201.728 503.253333H1024v-17.194666l-81.792-78.378667a23.936 23.936 0 0 1-9.088-22.954667v-576a23.936 23.936 0 0 1 9.088-22.912l79.786667-78.378666v-17.194667h-401.493334v17.194667l82.645334 80.298666c8.106667 8.106667 8.106667 10.496 8.106666 22.954667V563.456l-229.973333-584.021333h-31.018667L182.528 563.456v-391.424c-2.218667-16.469333 3.242667-33.024 14.805333-44.928l107.52-130.56v-17.152H0v17.194667l107.52 130.56c11.52 11.861333 16.64 28.586667 13.909333 44.885333V624.64z"  horiz-adv-x="1024" />
      
      <glyph glyph-name="ic_arrow" unicode="&#59768;" d="M854.016 622.032l85.12-95.6L513.28 147.264 86.096 526.352l84.96 95.744 342.08-303.568 340.88 303.504z"  horiz-adv-x="1024" />
      
      <glyph glyph-name="icon_user" unicode="&#59774;" d="M506.672 385.712c78.4 0 142.144 62.24 142.128 138.784s-63.76 138.784-142.128 138.784-142.144-62.272-142.144-138.784 63.776-138.784 142.144-138.784z m0-22.592c-158.08 0-227.392-96.544-227.392-175.104V177.6c0-50.48 79.2-72.896 179.456-72.896h106.512c96.304 0 179.472 22.4 179.472 72.896v10.4c0 78.576-79.968 175.12-238.048 175.12z"  horiz-adv-x="1024" />
      
      <glyph glyph-name="icon_hambergur" unicode="&#59770;" d="M1013.76 51.2a10.24 10.24 0 0 0 10.24-10.24v-107.52a10.24 10.24 0 0 0-10.24-10.24H10.24a10.24 10.24 0 0 0-10.24 10.24v107.52a10.24 10.24 0 0 0 10.24 10.24z m0 396.8a10.24 10.24 0 0 0 10.24-10.24v-107.52a10.24 10.24 0 0 0-10.24-10.24H10.24a10.24 10.24 0 0 0-10.24 10.24v107.52a10.24 10.24 0 0 0 10.24 10.24z m0 396.8a10.24 10.24 0 0 0 10.24-10.24v-107.52a10.24 10.24 0 0 0-10.24-10.24H10.24a10.24 10.24 0 0 0-10.24 10.24V834.56A10.24 10.24 0 0 0 10.24 844.8z"  horiz-adv-x="1024" />
      
      <glyph glyph-name="icon_close" unicode="&#59771;" d="M202.4576 771.2528L512 461.7104 821.5424 771.2528a10.24 10.24 0 0 0 14.1856 0.2848l0.296-0.2848 76.0288-76.0288a10.24 10.24 0 0 0 0-14.48L602.5104 371.2l309.5424-309.5424a10.24 10.24 0 0 0 0-14.4816l-76.0288-76.0288a10.24 10.24 0 0 0-14.48 0L512 280.6896 202.4576-28.8528a10.24 10.24 0 0 0-14.1856-0.2848l-0.296 0.2848-76.0288 76.0288a10.24 10.24 0 0 0 0 14.48L421.4896 371.2 111.9472 680.7424a10.24 10.24 0 0 0 0 14.4816l76.0288 76.0288a10.24 10.24 0 0 0 14.48 0z"  horiz-adv-x="1024" />
      
      <glyph glyph-name="icon_sign_out" unicode="&#59772;" d="M469.28 714.72a74.864 74.864 0 0 0 74.72-73.44v-44a32 32 0 0 0-64-0.48v43.2a10.848 10.848 0 0 1-10.24 10.72H298.72a10.848 10.848 0 0 1-10.72-10.24v-512.32a10.848 10.848 0 0 1 10.24-10.72h171.04a10.848 10.848 0 0 1 10.72 10.24v43.04a32 32 0 0 0 64 0.48v-43.2a74.864 74.864 0 0 0-73.44-74.72H298.72a74.864 74.864 0 0 0-74.72 73.44V640a74.864 74.864 0 0 0 73.44 74.72h171.84zM640 609.92a42.352 42.352 0 0 0 32.32-14.88l157.12-183.36a42.496 42.496 0 0 0 0-55.52L672.32 172.8a42.64 42.64 0 0 0-75.04 27.68v97.92H409.6a25.6 25.6 0 0 0-25.6 25.6v119.52a25.6 25.6 0 0 0 25.6 25.6h187.68v97.92a42.752 42.752 0 0 0 42.72 42.88z"  horiz-adv-x="1024" />
      
      <glyph glyph-name="press" unicode="&#59760;" d="M510.3248 880c273.0304 0 494.3232-221.2944 494.3232-494.3248 0-273.0304-221.2928-494.3232-494.3232-494.3232S16 112.6448 16 385.6752 237.2944 880 510.3248 880z m208.5504-230.4H301.9248C280.9808 649.6 264 629.9008 264 605.6v-440c0-24.3008 16.9792-44 37.9248-44h416.9504c20.944 0 37.9248 19.6992 37.9248 44v440c0 24.3008-16.9792 44-37.9248 44zM668.8 275.2v-43.2H352v43.2h316.8z m0 88v-44.8H352v44.8h316.8z m-0.0416 83.2v-43.2H542.4v43.2h126.3584zM497.6 544v-140.8h-145.6v140.8h145.6z m171.1584 0v-43.2H542.4v43.2h126.3584z"  horiz-adv-x="1024" />
      
      <glyph glyph-name="icon_more_1" unicode="&#59756;" d="M751.0368 303.672c-44.7152 0-80.9648 36.2496-80.9648 80.9648 0 44.7152 36.2496 80.9632 80.9648 80.9632C795.752 465.6 832 429.352 832 384.6368c0-44.7152-36.248-80.9648-80.9632-80.9648z m-239.0368 0c-44.7152 0-80.9632 36.2496-80.9632 80.9648C431.0368 429.352 467.2848 465.6 512 465.6c44.7152 0 80.9632-36.248 80.9632-80.9632 0-44.7152-36.248-80.9648-80.9632-80.9648z m-239.0368 0c-44.7152 0-80.9632 36.2496-80.9632 80.9648C192 429.352 228.248 465.6 272.9632 465.6c44.7152 0 80.9648-36.248 80.9648-80.9632 0-44.7152-36.2496-80.9648-80.9648-80.9648z"  horiz-adv-x="1024" />
      
      <glyph glyph-name="exclamation" unicode="&#59266;" d="M448 831.648h128V320h-128z m-16-735.424h160v-159.872H432z"  horiz-adv-x="1024" />
      
      <glyph glyph-name="arrowhead_right" unicode="&#59622;" d="M573.232 384L286.608 97.392l90.512-90.512L754.24 384 377.12 761.12l-90.512-90.512L573.232 384z"  horiz-adv-x="1024" />
      
      <glyph glyph-name="home_language" unicode="&#59665;" d="M512 839.104c251.344 0 455.104-203.76 455.104-455.104S763.344-71.104 512-71.104 56.896 132.656 56.896 384 260.656 839.104 512 839.104zM644.384 185.6H379.616c34.256-105.152 90.192-175.04 132.384-175.04s98.128 69.904 132.384 175.04z m-337.968 0h-124.544A386.288 386.288 0 0 1 383.68 20.8c-32.064 42.992-58.784 100.368-77.248 164.8z m535.696 0h-124.544c-18.464-64.448-45.184-121.824-77.264-164.8a386.288 386.288 0 0 1 201.824 164.8zM148.8 512.368a386.944 386.944 0 0 1 0-256.736h141.36a717.776 717.776 0 0 0 0 256.736z m513.84 0H361.328a654.752 654.752 0 0 1 0-256.736h301.344a654.752 654.752 0 0 1 0 256.736z m212.512 0h-141.328a717.776 717.776 0 0 0 0-256.736H875.2a386.944 386.944 0 0 1 0 256.736zM383.68 747.2l-4.8-1.728A386.368 386.368 0 0 1 181.872 582.4h124.56c18.464 64.432 45.184 121.808 77.248 164.8z m256.64 0l2.576-3.488c30.928-42.592 56.72-98.592 74.688-161.312h124.56A386.288 386.288 0 0 1 640.32 747.2zM512 757.424c-42.208 0-98.128-69.888-132.384-175.04h264.768c-34.256 105.152-90.176 175.04-132.384 175.04z"  horiz-adv-x="1024" />
      
      <glyph glyph-name="ins" unicode="&#59722;" d="M707.5312 596.0784h-42.1024c-7.6448 0-14.0336-6.2848-14.0336-14.0352v-42.1008a14.0352 14.0352 0 0 1 14.0336-14.0336h42.1024a14.0352 14.0352 0 0 1 14.032 14.0336v42.1008a14.0352 14.0352 0 0 1-14.032 14.0352zM510.3248 880C237.2944 880 16 658.7056 16 385.6752c0-273.0304 221.2944-494.3232 494.3248-494.3232 273.0304 0 494.3232 221.2928 494.3232 494.3232S783.3552 880 510.3248 880z m251.3504-667.128c0-43.36-35.1888-78.5472-78.5472-78.5472H337.52c-43.4624 0-78.5472 35.1888-78.5472 78.5472V414.896h102.216c-1.8848-9.4272-2.8272-19.2704-2.8272-29.2208 0-83.992 68.0736-151.9616 151.9632-151.9616 83.888 0 151.9616 68.0736 151.9616 151.9616 0 9.9504-0.9424 19.7936-2.8272 29.2208h102.216v-202.024zM416.8 385.6752c0 51.632 41.8928 93.5248 93.5248 93.5248s93.5232-41.8928 93.5232-93.5248c0-51.736-41.8912-93.5232-93.5232-93.5232-51.632 0-93.5248 41.7872-93.5248 93.5232z m344.8752 87.6592h-127.2464c-27.544 38.8544-72.7872 64.304-124.104 64.304-51.3184 0-96.56-25.4496-124.1056-64.304h-127.2464V558.48c0 43.3584 35.1888 78.5472 78.5472 78.5472h345.608c43.36 0 78.5472-35.1888 78.5472-78.5472v-85.1456z"  horiz-adv-x="1024" />
      
      <glyph glyph-name="facebook1" unicode="&#59203;" d="M512 880c273.9328 0 496-222.0672 496-496S785.9328-112 512-112 16 110.06719999999996 16 384 238.0672 880 512 880z m83.3408-129.6c-99.6048 0-167.5152-60.7968-167.5152-172.0432v-96.0464h-112.5408v-130.3264h112.5408V17.600000000000023h134.528V351.98400000000004h112.2176l16.816 130.3264h-129.032v83.1104c0 37.8368 10.3488 63.3856 64.6768 63.3856h68.8832V745.2256c-11.9664 1.616-53.0368 5.1744-100.576 5.1744z"  horiz-adv-x="1024" />
      
      <glyph glyph-name="linkedin" unicode="&#59631;" d="M512 880c273.9328 0 496-222.0672 496-496S785.9328-112 512-112 16 110.0672 16 384 238.0672 880 512 880z m-135.696-374.9856h-120.9552v-423.3472h120.9568V505.0144z m181.4352 0h-120.9568v-423.3472h120.9568V323.5792c0 33.4032 27.0752 60.48 60.4784 60.48s60.4768-27.0768 60.4768-60.48v-241.912h120.9568V353.8096c0 83.5072-60.9232 151.2048-136.0704 151.2048-42.7712 0-80.896-40.816-105.8416-75.0896v75.088zM315.8272 686.448c-33.4032 0-60.48-27.0752-60.48-60.4784s27.0768-60.4784 60.48-60.4784 60.4784 27.0752 60.4784 60.48c0 33.4016-27.0752 60.4768-60.48 60.4768z"  horiz-adv-x="1024" />
      
      <glyph glyph-name="medium1" unicode="&#59632;" d="M512 880c273.9328 0 496-222.0672 496-496S785.9328-112 512-112 16 110.0672 16 384 238.0672 880 512 880z m-123.3824-248h-181.088v-10.4896l58.304-70.2816a24.1552 24.1552 0 0 0 7.888-20.4064v-276.1264c1.6672-9.9424-1.456-20.1472-8.4848-27.3824l-65.5952-79.6528v-10.4896h185.984v10.464l-65.5968 79.6512a33.0064 33.0064 0 0 0-9.032 27.4096v238.8L474.336 137.1952h18.9248l140.3008 356.2976v-285.0112c-0.0112-6.7408-0.224-8.2832-4.9456-13.0048l-50.4208-48.9888V136H823.136v10.4896l-48.6768 47.8176a14.6032 14.6032 0 0 0-5.544 13.9776V559.6896a14.6032 14.6032 0 0 0 5.544 14.0032l49.8992 47.8176V632H651.6768l-123.0704-307.024L388.6176 632z"  horiz-adv-x="1024" />
      
      <glyph glyph-name="line" unicode="&#59634;" d="M512 880c273.9328 0 496-222.0672 496-496S785.9328-112 512-112 16 110.0672 16 384 238.0672 880 512 880z m0-179.2c-191.536 0-347.4928-126.5552-347.4928-282.0848 0-139.3376 123.5728-256.0912 290.608-278.2496 40.6928-8.736 36.0048-23.648 26.8448-78.4032-1.4928-8.736-7.032-34.3024 30.04-18.7488 37.072 15.552 200.0576 117.8192 273.136 201.7632 50.2816 55.392 74.3568 111.4272 74.3568 173.6384C859.4928 574.2448 703.536 700.8 512 700.8z m96.56-213.4656v-151.4816c0-3.8352-2.9808-6.8176-6.816-6.8176h-24.288c-2.344 0-4.4752 1.2784-5.5392 2.7696l-69.456 93.744v-89.9088c0-3.8352-2.984-6.8176-6.8176-6.8176h-24.288c-3.8352 0-6.8192 2.9824-6.8192 6.8176v151.4816c0 3.8352 2.984 6.8176 6.8176 6.8176h24.0752c2.1312 0 4.4752-1.0656 5.5408-2.9824l69.456-93.744v89.9088c0 3.8352 2.9824 6.8176 6.816 6.8176h24.288c3.8368 0.2128 7.032-2.9824 7.032-6.6048z m-198.992 6.8176h24.288c3.7232 0 6.6416-3.0096 6.8112-6.4992l0.008-0.3184v-151.4816c0-3.7216-2.8112-6.64-6.4816-6.8096l-0.336-0.008h-24.288c-3.7232 0-6.6432 2.8096-6.8112 6.4816l-0.008 0.336v151.4816c0 3.7232 2.8096 6.6416 6.4816 6.8112l0.336 0.0064h24.288z m229.4608 0h97.3648c3.5136 0 6.424-3.0048 6.792-6.4896l0.0272-0.328v-24.288c0-3.7216-2.8112-6.64-6.4816-6.8096l-0.336-0.008h-66.2608v-25.5664h66.2592c3.7232 0 6.6416-2.8096 6.8112-6.4816l0.008-0.336v-24.5008c0-3.7232-2.8112-6.6416-6.4816-6.8112l-0.336-0.008h-66.2608v-25.5664h66.2592c3.7232 0 6.6416-2.8096 6.8112-6.48l0.008-0.336v-24.288c0-3.7232-2.8112-6.6432-6.4816-6.8112l-0.336-0.008h-97.3664c-3.7232 0-6.6416 3.0112-6.8112 6.4992l-0.0064 0.32v151.48c0 3.7232 3.0096 6.6416 6.4992 6.8112l0.3184 0.0064h97.3648z m-361.128 0h24.288c3.7216 0 6.6416-2.8096 6.8096-6.48l0.008-0.336v-120.1632h66.2608c3.512 0 6.4224-3.0064 6.5968-6.4912l0.008-0.328v-24.288c0-3.7216-2.8112-6.64-6.4816-6.8096l-0.336-0.008h-97.3664c-1.9184 0-3.408 0.8528-4.688 1.9184-1.1872 1.1872-1.824 2.5568-1.9072 4.2816l-0.0096 0.4048v151.4816c0 3.7232 2.8096 6.6416 6.48 6.8112l0.336 0.0064h24.2896z"  horiz-adv-x="1024" />
      
      <glyph glyph-name="biyong1" unicode="&#59635;" d="M512 880c273.9328 0 496-222.0672 496-496S785.9328-112 512-112 16 110.0672 16 384 238.0672 880 512 880z m-72.1584-174.4l-0.4144-0.008c-7.288-0.2336-13.1248-6.0448-13.1488-13.1888v-54.1136H290.32l-0.8608-0.008c-28.3344-0.4464-51.1648-22.928-51.1824-50.6016 0.016-19.8 11.8944-37.7744 30.4032-46v-312.048l-0.664-0.3008c-21.8336-10.0672-33.6992-33.4784-28.5408-56.5088 5.2112-23.264 26.384-39.8464 50.856-39.8304h135.728v-57.4176l0.008-0.4c0.2512-7.0688 6.192-12.728 13.5104-12.7744h17.8368l0.416 0.008c7.288 0.2336 13.1232 6.0448 13.1472 13.1888v57.416h90.4896v-57.416l0.008-0.4032c0.24-7.088 6.2064-12.7648 13.544-12.7936h17.8368l0.416 0.008c7.288 0.2336 13.1232 6.0448 13.1472 13.1888v57.416h35.2016l2.3792 0.0192c78.3568 1.24 141.712 63.648 141.712 140.176-0.104 39.6096-17.392 77.3344-47.608 103.8768a11.408 11.408 0 0 0-3.9216 8.576 11.408 11.408 0 0 0 3.9216 8.576c30.2128 26.5472 47.504 64.2688 47.6192 103.8768 0 77.3024-64.6416 140.1968-144.0912 140.1968h-34.9264v54.0928l-0.0064 0.4032c-0.2432 7.096-6.2208 12.776-13.568 12.7936H575.296l-0.4144-0.008c-7.288-0.2336-13.1248-6.0448-13.1488-13.1888v-54.1136H471.232v54.1136l-0.008 0.4032c-0.24 7.088-6.208 12.7648-13.544 12.7936z m151.7696-181.168c33.7056 0 61.0272-26.584 61.0272-59.3776v-145.1072l-0.008-0.9808c-0.5392-32.3408-27.6512-58.3968-61.0192-58.3968h-148.3984l-38.7712-36.8-0.36-0.3312c-3.896-3.4336-9.5008-4.376-14.3728-2.3776-5.024 2.0608-8.2912 6.848-8.2944 12.152V465.0976l0.0096 0.9808c0.5616 32.32 27.6608 58.3472 61.008 58.3536z m-123.0352-109.6544c-12.4128 0-22.4768-9.792-22.4768-21.8688 0-12.0784 10.064-21.8688 22.4768-21.8688s22.4768 9.792 22.4768 21.8688c0 12.0768-10.064 21.8688-22.4768 21.8688z m100.2832 0c-12.4128 0-22.4752-9.792-22.4752-21.8688 0-12.0784 10.064-21.8688 22.4752-21.8688 12.4144 0 22.4768 9.792 22.4768 21.8688 0 12.0768-10.064 21.8688-22.4768 21.8688z"  horiz-adv-x="1024" />
      
      </font>
</defs>
</svg>
